<?xml version="1.0" encoding="UTF-8"?>
<!DOCTYPE svg PUBLIC "-//W3C//DTD SVG 1.1//EN" "http://www.w3.org/Graphics/SVG/1.1/DTD/svg11.dtd">
<svg xmlns="http://www.w3.org/2000/svg" version="1.1" width="500px" height="500px" opacity="0.1" style="shape-rendering:geometricPrecision; text-rendering:geometricPrecision; image-rendering:optimizeQuality; fill-rule:evenodd; clip-rule:evenodd" xmlns:xlink="http://www.w3.org/1999/xlink">
<g><path style="opacity:0.007" fill="#fefffe" d="M 427.5,52.5 C 423.167,52.5 418.833,52.5 414.5,52.5C 415.374,51.4749 416.541,50.8082 418,50.5C 421.324,51.0504 424.491,51.7171 427.5,52.5 Z"/></g>
<g><path style="opacity:0.741" fill="#b8b7b7" d="M 81.5,52.5 C 78.4824,52.7038 75.4824,53.0371 72.5,53.5C 73.9461,52.0598 75.7794,51.3932 78,51.5C 79.3847,51.5143 80.5514,51.8476 81.5,52.5 Z"/></g>
<g><path style="opacity:0.896" fill="#616161" d="M 261.5,55.5 C 261.5,56.1667 261.5,56.8333 261.5,57.5C 253.82,54.8867 246.153,54.8867 238.5,57.5C 238.062,57.5654 237.728,57.3988 237.5,57C 238.416,56.7216 239.082,56.2216 239.5,55.5C 240.688,54.6364 241.855,53.6364 243,52.5C 244.881,53.3544 246.714,53.0211 248.5,51.5C 253.184,51.9207 257.517,53.2541 261.5,55.5 Z"/></g>
<g><path style="opacity:0.013" fill="#e8e8e8" d="M 338.5,52.5 C 341.228,52.1706 343.562,52.8372 345.5,54.5C 342.933,54.2785 340.599,53.6118 338.5,52.5 Z"/></g>
<g><path style="opacity:0.894" fill="#5c5c5c" d="M 414.5,52.5 C 418.833,52.5 423.167,52.5 427.5,52.5C 428.5,53.1667 429.5,53.8333 430.5,54.5C 430.5,55.1667 430.167,55.5 429.5,55.5C 424.148,54.3762 418.814,54.3762 413.5,55.5C 412.5,55.1667 411.833,54.5 411.5,53.5C 412.209,52.596 413.209,52.2627 414.5,52.5 Z"/></g>
<g><path style="opacity:0.01" fill="#fbfbfb" d="M 427.5,52.5 C 429.698,52.1201 431.365,52.7868 432.5,54.5C 431.833,54.5 431.167,54.5 430.5,54.5C 429.5,53.8333 428.5,53.1667 427.5,52.5 Z"/></g>
<g><path style="opacity:0.902" fill="#6b6969" d="M 81.5,52.5 C 84.6489,52.4152 87.3155,53.4152 89.5,55.5C 90.6602,57.2027 89.9935,57.8693 87.5,57.5C 80.5563,55.0224 73.5563,55.0224 66.5,57.5C 66.5,56.8333 66.5,56.1667 66.5,55.5C 68.1417,53.9192 70.1417,53.2525 72.5,53.5C 75.4824,53.0371 78.4824,52.7038 81.5,52.5 Z"/></g>
<g><path style="opacity:0.892" fill="#a3a3a3" d="M 156.5,53.5 C 155.909,54.1515 155.243,54.8182 154.5,55.5C 154.957,56.2975 155.624,56.6309 156.5,56.5C 155.791,57.404 154.791,57.7373 153.5,57.5C 153.672,56.5084 153.338,55.8417 152.5,55.5C 153.287,53.8958 154.62,53.2291 156.5,53.5 Z"/></g>
<g><path style="opacity:0.925" fill="#737373" d="M 175.5,55.5 C 174.391,55.5569 173.391,55.8902 172.5,56.5C 167.167,55.1667 161.833,55.1667 156.5,56.5C 155.624,56.6309 154.957,56.2975 154.5,55.5C 155.243,54.8182 155.909,54.1515 156.5,53.5C 158.487,52.6568 160.654,51.9902 163,51.5C 167.505,52.1602 171.672,53.4935 175.5,55.5 Z"/></g>
<g><path style="opacity:0.91" fill="#6e6e6e" d="M 338.5,52.5 C 340.599,53.6118 342.933,54.2785 345.5,54.5C 347.882,55.3507 349.882,56.684 351.5,58.5C 352.167,59.5 352.833,60.5 353.5,61.5C 353.5,62.1667 353.5,62.8333 353.5,63.5C 344.498,55.0754 334.498,53.2421 323.5,58C 313.538,65.1053 310.205,74.6053 313.5,86.5C 313.5,87.8333 312.833,88.5 311.5,88.5C 306.434,71.3436 312.1,59.3436 328.5,52.5C 331.594,51.4657 334.927,51.4657 338.5,52.5 Z"/></g>
<g><path style="opacity:0.894" fill="#646162" d="M 66.5,55.5 C 66.5,56.1667 66.5,56.8333 66.5,57.5C 62.4564,60.5425 59.1231,64.2092 56.5,68.5C 56.1583,67.6618 55.4916,67.3284 54.5,67.5C 56.8552,61.8115 60.8552,57.8115 66.5,55.5 Z"/></g>
<g><path style="opacity:0.906" fill="#a1a3a3" d="M 89.5,55.5 C 91.0269,55.427 92.0269,56.0937 92.5,57.5C 91.6618,57.8417 91.3284,58.5084 91.5,59.5C 90.0048,59.0113 88.6715,58.3446 87.5,57.5C 89.9935,57.8693 90.6602,57.2027 89.5,55.5 Z"/></g>
<g><path style="opacity:0.878" fill="#6d6e6d" d="M 152.5,55.5 C 153.338,55.8417 153.672,56.5084 153.5,57.5C 147.622,60.7001 143.622,65.3668 141.5,71.5C 141.768,69.901 141.434,68.5676 140.5,67.5C 142.855,61.8115 146.855,57.8115 152.5,55.5 Z"/></g>
<g><path style="opacity:0.004" fill="#f5f5f5" d="M 351.5,58.5 C 354.946,59.6118 356.946,61.9452 357.5,65.5C 356.527,63.8608 355.194,62.5274 353.5,61.5C 352.833,60.5 352.167,59.5 351.5,58.5 Z"/></g>
<g><path style="opacity:0.883" fill="#6c6c6c" d="M 92.5,57.5 C 97.9919,60.1408 101.325,64.4741 102.5,70.5C 101.075,68.9689 100.409,69.3023 100.5,71.5C 98.3011,66.9584 95.3011,62.9584 91.5,59.5C 91.3284,58.5084 91.6618,57.8417 92.5,57.5 Z"/></g>
<g><path style="opacity:0.855" fill="#747474" d="M 411.5,53.5 C 411.833,54.5 412.5,55.1667 413.5,55.5C 408.958,57.6989 404.958,60.6989 401.5,64.5C 401.158,63.6618 400.492,63.3284 399.5,63.5C 402.303,58.7606 406.303,55.4273 411.5,53.5 Z"/></g>
<g><path style="opacity:0.854" fill="#656363" d="M 175.5,55.5 C 182.005,59.0109 186.338,64.3442 188.5,71.5C 187.604,70.4937 186.938,70.4937 186.5,71.5C 183.16,65.1633 178.493,60.1633 172.5,56.5C 173.391,55.8902 174.391,55.5569 175.5,55.5 Z"/></g>
<g><path style="opacity:0.937" fill="#656565" d="M 430.5,54.5 C 431.167,54.5 431.833,54.5 432.5,54.5C 440.288,58.3624 444.955,64.6957 446.5,73.5C 445.833,73.5 445.167,73.5 444.5,73.5C 441.726,65.7194 436.726,59.7194 429.5,55.5C 430.167,55.5 430.5,55.1667 430.5,54.5 Z"/></g>
<g><path style="opacity:0.863" fill="#6b6a6b" d="M 261.5,55.5 C 268.486,59.151 272.819,64.8176 274.5,72.5C 273.508,72.3284 272.842,72.6618 272.5,73.5C 270.356,67.2412 266.689,61.9078 261.5,57.5C 261.5,56.8333 261.5,56.1667 261.5,55.5 Z"/></g>
<g><path style="opacity:0.004" fill="#fefffe" d="M 52.5,66.5 C 53.8333,67.1667 53.8333,67.1667 52.5,66.5 Z"/></g>
<g><path style="opacity:0.889" fill="#5f5f5f" d="M 239.5,55.5 C 239.082,56.2216 238.416,56.7216 237.5,57C 237.728,57.3988 238.062,57.5654 238.5,57.5C 229.689,63.3519 225.689,71.3519 226.5,81.5C 226.5,82.8333 225.833,83.5 224.5,83.5C 222.542,70.7534 227.042,61.0867 238,54.5C 238.383,55.056 238.883,55.3893 239.5,55.5 Z"/></g>
<g><path style="opacity:0.008" fill="#f6f6f6" d="M 357.5,65.5 C 359.104,66.287 359.771,67.6203 359.5,69.5C 358.326,68.4863 357.66,67.153 357.5,65.5 Z"/></g>
<g><path style="opacity:0.006" fill="#f7f7f7" d="M 401.5,65.5 C 401.771,67.3797 401.104,68.713 399.5,69.5C 399.66,67.847 400.326,66.5137 401.5,65.5 Z"/></g>
<g><path style="opacity:0.863" fill="#3d3d3d" d="M 353.5,61.5 C 355.194,62.5274 356.527,63.8608 357.5,65.5C 357.66,67.153 358.326,68.4863 359.5,69.5C 360.207,72.7861 360.54,76.1194 360.5,79.5C 360.5,80.1667 360.5,80.8333 360.5,81.5C 359.962,83.1172 359.629,84.7839 359.5,86.5C 358.833,86.1667 358.167,85.8333 357.5,85.5C 358.736,81.0345 358.736,76.7012 357.5,72.5C 354.903,72.2792 354.903,71.7792 357.5,71C 356.027,68.5524 354.693,66.0524 353.5,63.5C 353.5,62.8333 353.5,62.1667 353.5,61.5 Z"/></g>
<g><path style="opacity:0.01" fill="#fcfcfc" d="M 54.5,68.5 C 52.8169,72.6306 52.1502,76.9639 52.5,81.5C 51.2521,80.6661 50.5854,79.3328 50.5,77.5C 50.6816,74.7737 51.1816,72.1071 52,69.5C 52.6708,68.7476 53.5041,68.4142 54.5,68.5 Z"/></g>
<g><path style="opacity:0.01" fill="#fdfdfd" d="M 359.5,69.5 C 360.117,69.6107 360.617,69.944 361,70.5C 361.805,73.6965 361.638,76.6965 360.5,79.5C 360.54,76.1194 360.207,72.7861 359.5,69.5 Z"/></g>
<g><path style="opacity:0.904" fill="#606060" d="M 151.5,69.5 C 153.484,69.484 154.484,70.484 154.5,72.5C 153.167,76.5 151.833,76.5 150.5,72.5C 150.685,71.4163 151.018,70.4163 151.5,69.5 Z"/></g>
<g><path style="opacity:0.955" fill="#555555" d="M 411.5,70.5 C 411.5,71.5 411.5,72.5 411.5,73.5C 410.5,73.5 409.5,73.5 408.5,73.5C 407.199,71.544 407.699,69.8774 410,68.5C 410.717,69.0442 411.217,69.7109 411.5,70.5 Z"/></g>
<g><path style="opacity:0.922" fill="#616161" d="M 431.5,68.5 C 435.109,70.424 435.275,72.424 432,74.5C 430.72,74.3865 429.887,73.7199 429.5,72.5C 430.18,71.1401 430.847,69.8068 431.5,68.5 Z"/></g>
<g><path style="opacity:0.859" fill="#5c5959" d="M 102.5,70.5 C 103.354,71.6316 103.354,72.965 102.5,74.5C 102.5,78.1667 102.5,81.8333 102.5,85.5C 102.672,86.4916 102.338,87.1583 101.5,87.5C 101.167,86.8333 100.833,86.1667 100.5,85.5C 101.622,81.0315 101.622,76.3649 100.5,71.5C 100.409,69.3023 101.075,68.9689 102.5,70.5 Z"/></g>
<g><path style="opacity:0.957" fill="#363736" d="M 236.5,70.5 C 237.833,70.5 239.167,70.5 240.5,70.5C 240.5,71.8333 240.5,73.1667 240.5,74.5C 239.167,74.5 237.833,74.5 236.5,74.5C 236.5,73.1667 236.5,71.8333 236.5,70.5 Z"/></g>
<g><path style="opacity:0.849" fill="#414141" d="M 344.5,70.5 C 345.833,70.5 347.167,70.5 348.5,70.5C 348.5,71.8333 348.5,73.1667 348.5,74.5C 344.529,75.2045 343.195,73.8711 344.5,70.5 Z"/></g>
<g><path style="opacity:1" fill="#373635" d="M 87.5,70.5 C 90.1662,70.0658 91.3329,71.0658 91,73.5C 87.4034,75.0661 86.2368,74.0661 87.5,70.5 Z"/></g>
<g><path style="opacity:1" fill="#3d3e3f" d="M 172.5,70.5 C 177.281,70.7169 178.114,72.3835 175,75.5C 173.108,74.3826 172.275,72.7159 172.5,70.5 Z"/></g>
<g><path style="opacity:1" fill="#403e3f" d="M 258.5,70.5 C 259.833,70.5 261.167,70.5 262.5,70.5C 262.5,71.8333 262.5,73.1667 262.5,74.5C 261.167,74.5 259.833,74.5 258.5,74.5C 258.5,73.1667 258.5,71.8333 258.5,70.5 Z"/></g>
<g><path style="opacity:0.812" fill="#5d5d5d" d="M 322.5,69.5 C 324.567,69.5323 325.9,70.5323 326.5,72.5C 324.839,76.3818 323.173,76.2151 321.5,72C 321.743,71.0979 322.077,70.2646 322.5,69.5 Z"/></g>
<g><path style="opacity:0.824" fill="#4d4b49" d="M 64.5,70.5 C 69.281,70.7169 70.1143,72.3835 67,75.5C 65.1079,74.3826 64.2746,72.7159 64.5,70.5 Z"/></g>
<g><path style="opacity:0.01" fill="#fafafa" d="M 357.5,72.5 C 358.736,76.7012 358.736,81.0345 357.5,85.5C 357.5,86.1667 357.167,86.5 356.5,86.5C 356.714,84.8561 356.38,83.3561 355.5,82C 357.344,79.1963 358.011,76.0297 357.5,72.5 Z"/></g>
<g><path style="opacity:0.011" fill="#f7f7f7" d="M 398.5,72.5 C 399.833,75.8333 399.833,79.1667 398.5,82.5C 397.167,79.1667 397.167,75.8333 398.5,72.5 Z"/></g>
<g><path style="opacity:0.007" fill="#d5d5d5" d="M 411.5,70.5 C 412.339,71.6412 413.006,72.9745 413.5,74.5C 411.418,75.8943 409.751,75.561 408.5,73.5C 409.5,73.5 410.5,73.5 411.5,73.5C 411.5,72.5 411.5,71.5 411.5,70.5 Z"/></g>
<g><path style="opacity:0.878" fill="#484646" d="M 54.5,67.5 C 55.4916,67.3284 56.1583,67.6618 56.5,68.5C 56.6038,71.0895 55.9371,73.4229 54.5,75.5C 55.7321,77.6825 55.7321,79.8492 54.5,82C 55.0769,83.9001 55.7435,85.7334 56.5,87.5C 56.5,89.1667 56.5,90.8333 56.5,92.5C 55.8333,92.5 55.5,92.1667 55.5,91.5C 55.3404,89.847 54.6737,88.5137 53.5,87.5C 53.5,86.8333 53.5,86.1667 53.5,85.5C 52.8902,84.609 52.5569,83.609 52.5,82.5C 52.5,82.1667 52.5,81.8333 52.5,81.5C 52.1502,76.9639 52.8169,72.6306 54.5,68.5C 54.5,68.1667 54.5,67.8333 54.5,67.5 Z"/></g>
<g><path style="opacity:0.602" fill="#b6b3b4" d="M 102.5,74.5 C 104.441,78.0026 104.441,81.6692 102.5,85.5C 102.5,81.8333 102.5,78.1667 102.5,74.5 Z"/></g>
<g><path style="opacity:0.208" fill="#e9e9e9" d="M 188.5,72.5 C 190.703,76.3914 190.703,80.3914 188.5,84.5C 188.5,80.5 188.5,76.5 188.5,72.5 Z"/></g>
<g><path style="opacity:0.008" fill="#f1f1f1" d="M 416.5,77.5 C 416.204,79.403 415.537,81.0697 414.5,82.5C 413.962,80.8828 413.629,79.2161 413.5,77.5C 414.5,77.5 415.5,77.5 416.5,77.5 Z"/></g>
<g><path style="opacity:0.867" fill="#5e5e5e" d="M 424.5,93.5 C 423.508,93.3284 422.842,93.6618 422.5,94.5C 420.694,95.2062 418.861,94.8729 417,93.5C 414.781,89.8772 413.947,86.2105 414.5,82.5C 415.537,81.0697 416.204,79.403 416.5,77.5C 419.601,75.0579 422.768,75.0579 426,77.5C 428.323,82.0819 428.656,86.7485 427,91.5C 426.292,92.3805 425.458,93.0472 424.5,93.5 Z M 424.5,80.5 C 423.527,82.3002 422.527,84.1335 421.5,86C 422.365,87.3588 423.365,88.5255 424.5,89.5C 423.738,91.2624 422.404,92.2624 420.5,92.5C 420.611,91.8826 420.944,91.3826 421.5,91C 419.376,88.4362 418.042,85.6029 417.5,82.5C 417.427,80.9731 418.094,79.9731 419.5,79.5C 419.735,78.9033 420.235,78.5699 421,78.5C 422.303,78.9783 423.469,79.645 424.5,80.5 Z"/></g>
<g><path style="opacity:0.864" fill="#3b3b3b" d="M 188.5,71.5 C 188.5,71.8333 188.5,72.1667 188.5,72.5C 188.5,76.5 188.5,80.5 188.5,84.5C 188.672,85.4916 188.338,86.1583 187.5,86.5C 186.662,86.1583 186.328,85.4916 186.5,84.5C 186.5,80.1667 186.5,75.8333 186.5,71.5C 186.938,70.4937 187.604,70.4937 188.5,71.5 Z"/></g>
<g><path style="opacity:0.885" fill="#403f3e" d="M 75.5,79.5 C 82.6123,78.8088 87.6123,81.6421 90.5,88C 90.1667,88.5 89.8333,89 89.5,89.5C 86.6678,83.7474 82.0012,81.0807 75.5,81.5C 74.4937,81.0623 74.4937,80.3957 75.5,79.5 Z"/></g>
<g><path style="opacity:0.889" fill="#454444" d="M 262.5,84.5 C 261.833,84.1667 261.167,83.8333 260.5,83.5C 258.5,83.5 256.5,83.5 254.5,83.5C 250.5,83.5 246.5,83.5 242.5,83.5C 241.167,83.5 239.833,83.5 238.5,83.5C 237.5,83.5 236.5,83.5 235.5,83.5C 235.281,82.325 235.614,81.325 236.5,80.5C 245.432,80.5681 254.432,80.9014 263.5,81.5C 263.737,82.791 263.404,83.791 262.5,84.5 Z"/></g>
<g><path style="opacity:0.007" fill="#f6f6f6" d="M 360.5,81.5 C 361.678,83.3379 361.345,85.0045 359.5,86.5C 359.629,84.7839 359.962,83.1172 360.5,81.5 Z"/></g>
<g><path style="opacity:0.01" fill="#fafafa" d="M 424.5,80.5 C 425.833,83.5 425.833,86.5 424.5,89.5C 423.365,88.5255 422.365,87.3588 421.5,86C 422.527,84.1335 423.527,82.3002 424.5,80.5 Z"/></g>
<g><path style="opacity:0.01" fill="#fefffe" d="M 52.5,82.5 C 52.5569,83.609 52.8902,84.609 53.5,85.5C 52.6618,85.8417 52.3284,86.5084 52.5,87.5C 51.1667,85.8333 51.1667,84.1667 52.5,82.5 Z"/></g>
<g><path style="opacity:0.008" fill="#e0e0e0" d="M 398.5,82.5 C 399.736,84.649 400.736,86.9823 401.5,89.5C 399.166,87.8243 398.166,85.491 398.5,82.5 Z"/></g>
<g><path style="opacity:0.01" fill="#f4f4f4" d="M 417.5,82.5 C 418.042,85.6029 419.376,88.4362 421.5,91C 420.944,91.3826 420.611,91.8826 420.5,92.5C 418.003,91.8707 416.67,90.204 416.5,87.5C 417.833,87.1667 417.833,86.8333 416.5,86.5C 416.5,85.5 416.5,84.5 416.5,83.5C 417.167,83.5 417.5,83.1667 417.5,82.5 Z"/></g>
<g><path style="opacity:0.01" fill="#fefffe" d="M 242.5,83.5 C 246.5,83.5 250.5,83.5 254.5,83.5C 250.456,85.8536 246.456,85.8536 242.5,83.5 Z"/></g>
<g><path style="opacity:0.922" fill="#696665" d="M 75.5,79.5 C 74.4937,80.3957 74.4937,81.0623 75.5,81.5C 71.9493,83.3745 68.9493,86.0412 66.5,89.5C 65.6919,89.1924 65.0253,88.6924 64.5,88C 66.7021,83.2363 70.3688,80.403 75.5,79.5 Z"/></g>
<g><path style="opacity:0.889" fill="#3d3d3d" d="M 444.5,73.5 C 445.167,73.5 445.833,73.5 446.5,73.5C 447.005,79.4857 446.005,85.1524 443.5,90.5C 442.508,90.6716 441.842,90.3382 441.5,89.5C 443.95,84.4697 444.95,79.1363 444.5,73.5 Z"/></g>
<g><path style="opacity:0.904" fill="#454545" d="M 274.5,72.5 C 275.172,79.1691 274.172,85.5025 271.5,91.5C 270.596,90.791 270.263,89.791 270.5,88.5C 272.152,83.6591 272.818,78.6591 272.5,73.5C 272.842,72.6618 273.508,72.3284 274.5,72.5 Z"/></g>
<g><path style="opacity:0.91" fill="#676767" d="M 332.5,80.5 C 340.187,79.6657 345.187,82.8323 347.5,90C 339.672,91.4657 331.672,91.9657 323.5,91.5C 323.014,88.2447 324.014,85.578 326.5,83.5C 328.594,82.4824 330.594,81.4824 332.5,80.5 Z M 328.5,86.5 C 331.167,87.1667 333.833,87.8333 336.5,88.5C 333.428,88.8174 330.428,88.4841 327.5,87.5C 327.624,86.8933 327.957,86.56 328.5,86.5 Z M 340.5,85.5 C 336.566,86.3597 332.566,86.693 328.5,86.5C 330.166,84.1716 332.499,83.1716 335.5,83.5C 336.833,83.6667 338.167,83.8333 339.5,84C 340.056,84.3826 340.389,84.8826 340.5,85.5 Z"/></g>
<g><path style="opacity:0.008" fill="#fbfbfb" d="M 340.5,85.5 C 340.833,86.8333 341.167,86.8333 341.5,85.5C 342.627,86.1217 343.627,86.955 344.5,88C 341.854,88.4974 339.187,88.6641 336.5,88.5C 333.833,87.8333 331.167,87.1667 328.5,86.5C 332.566,86.693 336.566,86.3597 340.5,85.5 Z"/></g>
<g><path style="opacity:0.953" fill="#616161" d="M 399.5,63.5 C 400.492,63.3284 401.158,63.6618 401.5,64.5C 401.5,64.8333 401.5,65.1667 401.5,65.5C 400.326,66.5137 399.66,67.847 399.5,69.5C 399.737,70.791 399.404,71.791 398.5,72.5C 397.167,75.8333 397.167,79.1667 398.5,82.5C 398.166,85.491 399.166,87.8243 401.5,89.5C 403.871,94.2024 407.538,97.5357 412.5,99.5C 412.833,99.5 413.167,99.5 413.5,99.5C 415.679,100.926 418.179,101.592 421,101.5C 422.707,101.492 424.207,101.158 425.5,100.5C 426.167,100.5 426.833,100.5 427.5,100.5C 427.5,101.167 427.5,101.833 427.5,102.5C 412.951,105.309 402.451,99.9752 396,86.5C 394.481,78.2889 395.648,70.6222 399.5,63.5 Z"/></g>
<g><path style="opacity:0.059" fill="#f2f2f2" d="M 52.5,87.5 C 52.8333,87.5 53.1667,87.5 53.5,87.5C 54.6737,88.5137 55.3404,89.847 55.5,91.5C 54.0256,90.5637 53.0256,89.2303 52.5,87.5 Z"/></g>
<g><path style="opacity:0.919" fill="#575555" d="M 235.5,83.5 C 236.5,83.5 237.5,83.5 238.5,83.5C 242.151,89.6583 247.484,91.9916 254.5,90.5C 255.492,90.3284 256.158,90.6618 256.5,91.5C 251.919,92.6068 247.252,92.7734 242.5,92C 238.853,90.1917 236.52,87.3584 235.5,83.5 Z"/></g>
<g><path style="opacity:0.882" fill="#666666" d="M 260.5,83.5 C 261.167,83.8333 261.833,84.1667 262.5,84.5C 261.932,88.0674 259.932,90.4007 256.5,91.5C 256.158,90.6618 255.492,90.3284 254.5,90.5C 256.545,88.1592 258.545,85.8259 260.5,83.5 Z"/></g>
<g><path style="opacity:0.851" fill="#5e5d5d" d="M 166.5,90.5 C 168.153,90.3404 169.486,89.6737 170.5,88.5C 173.389,86.7226 174.722,84.0559 174.5,80.5C 176.681,80.2837 178.347,81.117 179.5,83C 173.035,92.9281 164.368,95.2615 153.5,90C 151.963,87.2538 149.963,84.9205 147.5,83C 150.672,79.2932 152.505,79.7932 153,84.5C 156.384,89.4506 160.884,91.4506 166.5,90.5 Z"/></g>
<g><path style="opacity:0.01" fill="#f6fffe" d="M 170.5,88.5 C 169.486,89.6737 168.153,90.3404 166.5,90.5C 167.287,88.8958 168.62,88.2291 170.5,88.5 Z"/></g>
<g><path style="opacity:0.051" fill="#f5f5f5" d="M 401.5,89.5 C 405.238,92.9122 408.905,96.2455 412.5,99.5C 407.538,97.5357 403.871,94.2024 401.5,89.5 Z"/></g>
<g><path style="opacity:0.871" fill="#696766" d="M 100.5,85.5 C 100.833,86.1667 101.167,86.8333 101.5,87.5C 99.9165,93.7072 96.2499,98.0406 90.5,100.5C 90.1583,99.6618 89.4916,99.3284 88.5,99.5C 93.043,96.1225 96.7096,91.9558 99.5,87C 98.2881,85.8932 98.6214,85.3932 100.5,85.5 Z"/></g>
<g><path style="opacity:0.98" fill="#5a5959" d="M 140.5,67.5 C 141.434,68.5676 141.768,69.901 141.5,71.5C 138.876,86.141 144.543,95.9743 158.5,101C 162.871,101.629 167.204,101.463 171.5,100.5C 172.338,100.842 172.672,101.508 172.5,102.5C 145.846,105.512 135.18,93.845 140.5,67.5 Z"/></g>
<g><path style="opacity:0.911" fill="#6f6f6f" d="M 270.5,88.5 C 270.263,89.791 270.596,90.791 271.5,91.5C 270.219,94.4474 268.219,96.7807 265.5,98.5C 265.158,97.6618 264.492,97.3284 263.5,97.5C 265.603,94.2802 267.936,91.2802 270.5,88.5 Z"/></g>
<g><path style="opacity:0.943" fill="#726f6f" d="M 56.5,87.5 C 60.3001,93.9698 65.6335,98.6365 72.5,101.5C 71.7611,101.369 71.0944,101.536 70.5,102C 71.4158,102.278 72.0825,102.778 72.5,103.5C 65.5481,102.219 60.2148,98.5523 56.5,92.5C 56.5,90.8333 56.5,89.1667 56.5,87.5 Z"/></g>
<g><path style="opacity:0.016" fill="#e9e9e9" d="M 424.5,93.5 C 423.994,95.1054 423.327,95.4387 422.5,94.5C 422.842,93.6618 423.508,93.3284 424.5,93.5 Z"/></g>
<g><path style="opacity:0.886" fill="#646464" d="M 441.5,89.5 C 441.842,90.3382 442.508,90.6716 443.5,90.5C 440.007,96.9172 434.674,100.917 427.5,102.5C 427.5,101.833 427.5,101.167 427.5,100.5C 429.98,98.8965 432.646,97.3965 435.5,96C 436.998,93.3363 438.998,91.1696 441.5,89.5 Z"/></g>
<g><path style="opacity:0.898" fill="#747474" d="M 226.5,81.5 C 228.378,89.2491 232.711,95.2491 239.5,99.5C 238.5,99.8333 237.833,100.5 237.5,101.5C 230.071,97.7374 225.738,91.7374 224.5,83.5C 225.833,83.5 226.5,82.8333 226.5,81.5 Z"/></g>
<g><path style="opacity:0.976" fill="#666564" d="M 186.5,84.5 C 186.328,85.4916 186.662,86.1583 187.5,86.5C 185.285,94.3834 180.285,99.7167 172.5,102.5C 172.672,101.508 172.338,100.842 171.5,100.5C 178.578,97.0897 183.578,91.7564 186.5,84.5 Z"/></g>
<g><path style="opacity:0.894" fill="#676767" d="M 357.5,85.5 C 358.167,85.8333 358.833,86.1667 359.5,86.5C 356.331,96.1743 349.997,101.841 340.5,103.5C 340.5,102.833 340.5,102.167 340.5,101.5C 347.743,98.5917 353.077,93.5917 356.5,86.5C 357.167,86.5 357.5,86.1667 357.5,85.5 Z"/></g>
<g><path style="opacity:0.923" fill="#6c6c6c" d="M 313.5,86.5 C 316.5,92.8333 321.167,97.5 327.5,100.5C 326.209,100.263 325.209,100.596 324.5,101.5C 318.522,98.8551 314.188,94.5218 311.5,88.5C 312.833,88.5 313.5,87.8333 313.5,86.5 Z"/></g>
<g><path style="opacity:0.012" fill="#f3f3f3" d="M 425.5,100.5 C 424.207,101.158 422.707,101.492 421,101.5C 418.179,101.592 415.679,100.926 413.5,99.5C 414.274,98.8529 415.274,98.5195 416.5,98.5C 419.437,99.4698 422.437,100.137 425.5,100.5 Z"/></g>
<g><path style="opacity:0.925" fill="#494746" d="M 88.5,99.5 C 89.4916,99.3284 90.1583,99.6618 90.5,100.5C 88.8516,101.927 86.8516,102.76 84.5,103C 80.5138,103.499 76.5138,103.666 72.5,103.5C 72.0825,102.778 71.4158,102.278 70.5,102C 71.0944,101.536 71.7611,101.369 72.5,101.5C 77.9911,101.85 83.3245,101.184 88.5,99.5 Z"/></g>
<g><path style="opacity:0.887" fill="#524e4e" d="M 263.5,97.5 C 264.492,97.3284 265.158,97.6618 265.5,98.5C 256.574,104.284 247.241,105.284 237.5,101.5C 237.833,100.5 238.5,99.8333 239.5,99.5C 247.845,102.582 255.845,101.916 263.5,97.5 Z"/></g>
<g><path style="opacity:0.886" fill="#5d5d5d" d="M 327.5,100.5 C 331.967,101.397 336.3,101.731 340.5,101.5C 340.5,102.167 340.5,102.833 340.5,103.5C 338.409,103.318 336.409,103.652 334.5,104.5C 330.878,104.048 327.545,103.048 324.5,101.5C 325.209,100.596 326.209,100.263 327.5,100.5 Z"/></g>
<g><path style="opacity:0.898" fill="#3a3839" d="M 174.5,140.5 C 174.672,141.492 174.338,142.158 173.5,142.5C 166.019,139.648 158.686,139.982 151.5,143.5C 151.5,142.833 151.5,142.167 151.5,141.5C 159.005,137.903 166.671,137.57 174.5,140.5 Z"/></g>
<g><path style="opacity:0.873" fill="#363737" d="M 88.5,140.5 C 88.6716,141.492 88.3382,142.158 87.5,142.5C 81.1839,139.837 74.8506,139.837 68.5,142.5C 67.6618,142.158 67.3284,141.492 67.5,140.5C 74.2187,137.624 81.2187,137.624 88.5,140.5 Z"/></g>
<g><path style="opacity:0.89" fill="#474747" d="M 437.5,144.5 C 436.833,144.5 436.5,144.833 436.5,145.5C 427.864,139.736 418.864,139.069 409.5,143.5C 408.833,143.5 408.5,143.167 408.5,142.5C 409.058,141.21 410.058,140.377 411.5,140C 421.096,136.998 429.763,138.498 437.5,144.5 Z"/></g>
<g><path style="opacity:0.886" fill="#656565" d="M 359.5,175.5 C 358.566,174.432 358.232,173.099 358.5,171.5C 361.871,153.982 354.537,143.648 336.5,140.5C 333.044,140.818 329.711,141.652 326.5,143C 322.305,146.03 318.639,149.53 315.5,153.5C 315.158,152.662 314.492,152.328 313.5,152.5C 318.536,143.795 326.203,138.795 336.5,137.5C 355.358,140.451 364.025,151.285 362.5,170C 361.361,171.78 360.361,173.614 359.5,175.5 Z"/></g>
<g><path style="opacity:0.883" fill="#676767" d="M 257.5,139.5 C 257.5,140.167 257.5,140.833 257.5,141.5C 242.134,138.514 231.801,144.348 226.5,159C 226.297,163.037 226.63,167.204 227.5,171.5C 227.158,172.338 226.492,172.672 225.5,172.5C 221.394,154.889 228.061,143.389 245.5,138C 249.57,137.779 253.57,138.279 257.5,139.5 Z"/></g>
<g><path style="opacity:0.882" fill="#656665" d="M 88.5,140.5 C 95.6898,143.686 100.356,149.019 102.5,156.5C 101.833,156.5 101.167,156.5 100.5,156.5C 97.5258,150.527 93.1925,145.861 87.5,142.5C 88.3382,142.158 88.6716,141.492 88.5,140.5 Z"/></g>
<g><path style="opacity:0.904" fill="#696969" d="M 174.5,140.5 C 182.089,143.756 186.755,149.422 188.5,157.5C 187.604,156.494 186.938,156.494 186.5,157.5C 183.974,150.971 179.64,145.971 173.5,142.5C 174.338,142.158 174.672,141.492 174.5,140.5 Z"/></g>
<g><path style="opacity:0.859" fill="#575757" d="M 257.5,139.5 C 268.937,143.496 274.937,151.663 275.5,164C 272.678,182.972 261.678,191.139 242.5,188.5C 241.494,187.604 241.494,186.938 242.5,186.5C 255.589,189.206 265.089,184.539 271,172.5C 274.996,158.365 270.496,148.032 257.5,141.5C 257.5,140.833 257.5,140.167 257.5,139.5 Z"/></g>
<g><path style="opacity:0.902" fill="#6f6f6f" d="M 408.5,142.5 C 408.5,143.167 408.833,143.5 409.5,143.5C 406.859,145.804 404.192,148.138 401.5,150.5C 401.158,149.662 400.492,149.328 399.5,149.5C 401.668,145.988 404.668,143.655 408.5,142.5 Z"/></g>
<g><path style="opacity:0.922" fill="#6b6b6b" d="M 67.5,140.5 C 67.3284,141.492 67.6618,142.158 68.5,142.5C 63.5,145.5 59.5,149.5 56.5,154.5C 56.5912,152.302 55.9245,151.969 54.5,153.5C 57.1522,147.514 61.4855,143.181 67.5,140.5 Z"/></g>
<g><path style="opacity:0.911" fill="#5b5a5a" d="M 151.5,141.5 C 151.5,142.167 151.5,142.833 151.5,143.5C 137.661,155.704 136.995,168.537 149.5,182C 156.161,186.766 163.495,188.266 171.5,186.5C 171.5,187.167 171.5,187.833 171.5,188.5C 155.942,191.64 145.109,185.973 139,171.5C 136.414,160.267 139.248,150.767 147.5,143C 148.901,142.59 150.234,142.09 151.5,141.5 Z"/></g>
<g><path style="opacity:0.013" fill="#f3f3f3" d="M 406.5,154.5 C 407.999,153.506 409.666,153.506 411.5,154.5C 411.217,155.289 410.717,155.956 410,156.5C 409.184,155.177 408.017,154.511 406.5,154.5 Z"/></g>
<g><path style="opacity:0.91" fill="#585858" d="M 437.5,144.5 C 446.373,152.332 448.873,161.999 445,173.5C 443.114,177.958 440.281,181.625 436.5,184.5C 436.5,183.833 436.5,183.167 436.5,182.5C 438.644,178.889 440.81,175.222 443,171.5C 445.099,165.386 444.766,159.386 442,153.5C 439.92,150.935 438.087,148.268 436.5,145.5C 436.5,144.833 436.833,144.5 437.5,144.5 Z"/></g>
<g><path style="opacity:0.945" fill="#565655" d="M 87.5,155.5 C 91.1612,155.35 92.1612,156.85 90.5,160C 86.7071,160.487 85.7071,158.987 87.5,155.5 Z"/></g>
<g><path style="opacity:0.831" fill="#868887" d="M 262.5,158.5 C 261.001,157.506 259.334,157.506 257.5,158.5C 258.736,156.957 260.402,155.957 262.5,155.5C 265.125,156.534 265.125,157.534 262.5,158.5 Z"/></g>
<g><path style="opacity:0.909" fill="#6f6f6f" d="M 172.5,156.5 C 174.199,156.34 175.866,156.506 177.5,157C 178.517,158.049 178.684,159.216 178,160.5C 176.381,159.917 174.548,159.917 172.5,160.5C 171.374,159.192 171.374,157.858 172.5,156.5 Z"/></g>
<g><path style="opacity:0.963" fill="#4a4b4b" d="M 262.5,158.5 C 265.205,163.292 263.872,164.459 258.5,162C 256.689,160.959 256.355,159.793 257.5,158.5C 259.334,157.506 261.001,157.506 262.5,158.5 Z"/></g>
<g><path style="opacity:0.891" fill="#585657" d="M 324.5,156.5 C 326.645,156.738 328.312,157.738 329.5,159.5C 326.891,159.272 324.224,159.605 321.5,160.5C 321.5,159.5 321.5,158.5 321.5,157.5C 322.791,157.737 323.791,157.404 324.5,156.5 Z"/></g>
<g><path style="opacity:0.918" fill="#666666" d="M 345.5,156.5 C 348.969,155.887 350.969,157.221 351.5,160.5C 348.776,159.605 346.109,159.272 343.5,159.5C 344.193,158.482 344.859,157.482 345.5,156.5 Z"/></g>
<g><path style="opacity:0.008" fill="#fafafa" d="M 413.5,156.5 C 414.774,158.993 415.44,161.659 415.5,164.5C 414.167,164.833 414.167,165.167 415.5,165.5C 415.672,166.492 415.338,167.158 414.5,167.5C 413.32,165.986 412.32,164.319 411.5,162.5C 410.914,162.709 410.414,163.043 410,163.5C 409.722,162.584 409.222,161.918 408.5,161.5C 409.562,159.121 410.895,159.121 412.5,161.5C 413.594,160.132 413.26,158.965 411.5,158C 412.044,157.283 412.711,156.783 413.5,156.5 Z"/></g>
<g><path style="opacity:0.008" fill="#ebebeb" d="M 428.5,156.5 C 431.167,157.5 431.167,158.5 428.5,159.5C 428.5,158.5 428.5,157.5 428.5,156.5 Z"/></g>
<g><path style="opacity:0.88" fill="#5c5d5c" d="M 56.5,154.5 C 54.512,160.085 54.1787,165.752 55.5,171.5C 55.7373,172.791 55.404,173.791 54.5,174.5C 54.5,174.167 54.5,173.833 54.5,173.5C 54.0113,172.005 53.3446,170.671 52.5,169.5C 51.5506,166.496 51.2173,163.162 51.5,159.5C 52.1286,157.259 53.1286,155.259 54.5,153.5C 55.9245,151.969 56.5912,152.302 56.5,154.5 Z"/></g>
<g><path style="opacity:1" fill="#707070" d="M 65.5,161.5 C 62.7217,157.76 63.7217,155.927 68.5,156C 69.9656,159.058 68.9656,160.891 65.5,161.5 Z"/></g>
<g><path style="opacity:0.9" fill="#585757" d="M 151.5,156.5 C 154.588,156.197 156.254,157.53 156.5,160.5C 153.776,159.605 151.109,159.272 148.5,159.5C 149.34,158.265 150.34,157.265 151.5,156.5 Z"/></g>
<g><path style="opacity:0.901" fill="#3d3d3d" d="M 413.5,156.5 C 412.711,156.783 412.044,157.283 411.5,158C 413.26,158.965 413.594,160.132 412.5,161.5C 410.895,159.121 409.562,159.121 408.5,161.5C 407.503,161.53 406.836,161.03 406.5,160C 406.622,158.061 406.622,156.228 406.5,154.5C 408.017,154.511 409.184,155.177 410,156.5C 410.717,155.956 411.217,155.289 411.5,154.5C 413.203,153.34 413.869,154.007 413.5,156.5 Z"/></g>
<g><path style="opacity:0.008" fill="#efefef" d="M 235.5,158.5 C 238.167,159.5 238.167,160.5 235.5,161.5C 235.5,160.5 235.5,159.5 235.5,158.5 Z"/></g>
<g><path style="opacity:0.945" fill="#484848" d="M 430.5,154.5 C 431.5,157.167 432.5,157.167 433.5,154.5C 434.743,153.263 435.743,153.596 436.5,155.5C 436.023,156.478 435.357,157.311 434.5,158C 437.468,160.178 437.135,161.344 433.5,161.5C 432.5,158.833 431.5,158.833 430.5,161.5C 430.44,162.043 430.107,162.376 429.5,162.5C 428.614,161.675 428.281,160.675 428.5,159.5C 431.167,158.5 431.167,157.5 428.5,156.5C 428.131,154.007 428.797,153.34 430.5,154.5 Z"/></g>
<g><path style="opacity:0.02" fill="#eaeaea" d="M 430.5,154.5 C 431.5,154.5 432.5,154.5 433.5,154.5C 432.5,157.167 431.5,157.167 430.5,154.5 Z"/></g>
<g><path style="opacity:0.934" fill="#585858" d="M 188.5,157.5 C 189.745,162.938 189.412,168.271 187.5,173.5C 186.5,173.167 185.833,172.5 185.5,171.5C 186.383,166.897 186.717,162.23 186.5,157.5C 186.938,156.494 187.604,156.494 188.5,157.5 Z"/></g>
<g><path style="opacity:0.908" fill="#4e4e4e" d="M 235.5,161.5 C 238.167,160.5 238.167,159.5 235.5,158.5C 233.946,157.105 234.279,156.439 236.5,156.5C 238.135,157.046 239.801,157.38 241.5,157.5C 242.127,160.864 240.794,162.864 237.5,163.5C 236.287,163.253 235.62,162.586 235.5,161.5 Z"/></g>
<g><path style="opacity:0.008" fill="#ebebeb" d="M 433.5,161.5 C 432.5,161.5 431.5,161.5 430.5,161.5C 431.5,158.833 432.5,158.833 433.5,161.5 Z"/></g>
<g><path style="opacity:0.01" fill="#fdfdfd" d="M 397.5,161.5 C 398.725,162.152 399.392,163.319 399.5,165C 399.486,166.385 399.152,167.551 398.5,168.5C 398.167,168.5 397.833,168.5 397.5,168.5C 397.5,166.167 397.5,163.833 397.5,161.5 Z"/></g>
<g><path style="opacity:0.204" fill="#c3c0c0" d="M 65.5,161.5 C 66.1098,162.391 66.4431,163.391 66.5,164.5C 65.609,163.89 64.609,163.557 63.5,163.5C 63.8333,162.5 64.5,161.833 65.5,161.5 Z"/></g>
<g><path style="opacity:0.924" fill="#444444" d="M 399.5,149.5 C 400.492,149.328 401.158,149.662 401.5,150.5C 399.879,154.073 398.546,157.739 397.5,161.5C 397.5,163.833 397.5,166.167 397.5,168.5C 397.565,168.938 397.399,169.272 397,169.5C 396.722,168.584 396.222,167.918 395.5,167.5C 394.95,161.038 396.283,155.038 399.5,149.5 Z"/></g>
<g><path style="opacity:0.947" fill="#5b5b5b" d="M 313.5,152.5 C 314.492,152.328 315.158,152.662 315.5,153.5C 313.913,157.023 313.413,160.69 314,164.5C 316.283,165.719 318.616,165.719 321,164.5C 325.206,165.593 326.539,168.26 325,172.5C 323.296,174.373 321.463,176.04 319.5,177.5C 319.158,176.662 318.492,176.328 317.5,176.5C 317.5,176.167 317.5,175.833 317.5,175.5C 319.63,173.873 321.63,172.04 323.5,170C 322.692,168.294 321.359,167.461 319.5,167.5C 318.5,167.833 317.833,168.5 317.5,169.5C 317.5,170.167 317.833,170.5 318.5,170.5C 318.103,171.525 317.437,171.692 316.5,171C 315.427,167.702 313.427,166.868 310.5,168.5C 310.158,167.662 309.492,167.328 308.5,167.5C 309.122,166.373 309.955,165.373 311,164.5C 311.186,160.319 312.019,156.319 313.5,152.5 Z"/></g>
<g><path style="opacity:0.012" fill="#f4f4f4" d="M 337.5,166.5 C 336.566,167.568 336.232,168.901 336.5,170.5C 335.167,170.5 334.5,169.833 334.5,168.5C 335.833,168.167 335.833,167.833 334.5,167.5C 335.221,165.618 336.221,165.285 337.5,166.5 Z"/></g>
<g><path style="opacity:0.788" fill="#646464" d="M 73.5,164.5 C 76.7728,164.169 80.1061,164.669 83.5,166C 85.9042,166.508 86.5709,167.675 85.5,169.5C 80.4329,166.845 75.7662,166.845 71.5,169.5C 70.4173,168.635 70.2506,167.635 71,166.5C 71.9947,165.934 72.828,165.267 73.5,164.5 Z"/></g>
<g><path style="opacity:0.009" fill="#fbfbfb" d="M 319.5,167.5 C 319.414,168.496 319.748,169.329 320.5,170C 319.906,170.464 319.239,170.631 318.5,170.5C 317.833,170.5 317.5,170.167 317.5,169.5C 317.833,168.5 318.5,167.833 319.5,167.5 Z"/></g>
<g><path style="opacity:0.895" fill="#676767" d="M 154.5,166.5 C 155.833,168.5 155.833,170.5 154.5,172.5C 153.833,173.167 153.167,173.833 152.5,174.5C 150.833,175.833 149.167,175.833 147.5,174.5C 147.833,173.833 148.167,173.167 148.5,172.5C 149.708,171.766 151.041,171.433 152.5,171.5C 152.5,170.5 152.5,169.5 152.5,168.5C 152.833,167.5 153.5,166.833 154.5,166.5 Z"/></g>
<g><path style="opacity:0.012" fill="#fbfbfb" d="M 52.5,169.5 C 53.3446,170.671 54.0113,172.005 54.5,173.5C 52.15,172.805 51.4833,171.472 52.5,169.5 Z"/></g>
<g><path style="opacity:0.007" fill="#f4f4f4" d="M 310.5,169.5 C 311.552,169.351 312.552,169.517 313.5,170C 313.167,170.333 312.833,170.667 312.5,171C 314.037,172.707 315.704,174.207 317.5,175.5C 317.5,175.833 317.5,176.167 317.5,176.5C 314.167,175.167 311.833,172.833 310.5,169.5 Z"/></g>
<g><path style="opacity:0.894" fill="#747474" d="M 395.5,167.5 C 396.222,167.918 396.722,168.584 397,169.5C 397.399,169.272 397.565,168.938 397.5,168.5C 397.833,168.5 398.167,168.5 398.5,168.5C 399.499,171.162 400.499,173.828 401.5,176.5C 401.833,177.5 402.5,178.167 403.5,178.5C 405.647,180.737 407.98,182.737 410.5,184.5C 409.167,184.5 408.5,185.167 408.5,186.5C 401.34,182.022 397.006,175.689 395.5,167.5 Z"/></g>
<g><path style="opacity:0.91" fill="#5d5c5c" d="M 154.5,166.5 C 153.5,166.833 152.833,167.5 152.5,168.5C 150.214,165.872 148.547,166.372 147.5,170C 147.743,170.902 148.077,171.735 148.5,172.5C 148.167,173.167 147.833,173.833 147.5,174.5C 144.566,171.946 144.066,168.946 146,165.5C 147.231,164.892 148.564,164.559 150,164.5C 152.008,164.307 153.508,164.974 154.5,166.5 Z"/></g>
<g><path style="opacity:0.89" fill="#585858" d="M 158.5,177.5 C 158.842,176.662 159.508,176.328 160.5,176.5C 168.829,177.502 173.162,173.835 173.5,165.5C 178.537,162.199 181.537,163.532 182.5,169.5C 181.898,174.294 179.398,175.961 175,174.5C 170.019,178.368 164.519,179.368 158.5,177.5 Z M 176.5,166.5 C 181.572,167.963 181.739,169.963 177,172.5C 173.898,170.663 173.731,168.663 176.5,166.5 Z"/></g>
<g><path style="opacity:0.888" fill="#5f5f5f" d="M 242.5,177.5 C 243.209,176.596 244.209,176.263 245.5,176.5C 251.926,177.62 256.926,175.453 260.5,170C 252.985,167.895 245.652,168.062 238.5,170.5C 238.5,171.5 238.5,172.5 238.5,173.5C 236.166,171.824 235.166,169.491 235.5,166.5C 244.744,167.469 253.911,167.803 263,167.5C 261.764,174.884 257.264,178.551 249.5,178.5C 247.142,178.247 244.808,177.914 242.5,177.5 Z"/></g>
<g><path style="opacity:0.906" fill="#454545" d="M 337.5,166.5 C 336.221,165.285 335.221,165.618 334.5,167.5C 334.5,167.833 334.5,168.167 334.5,168.5C 334.5,169.833 335.167,170.5 336.5,170.5C 336.5,171.167 336.5,171.833 336.5,172.5C 335.508,172.328 334.842,172.662 334.5,173.5C 334.5,173.833 334.5,174.167 334.5,174.5C 334.668,177.051 335.668,177.718 337.5,176.5C 339.934,177.354 339.767,178.354 337,179.5C 335.933,178.809 334.766,178.309 333.5,178C 332.025,174.364 331.525,170.531 332,166.5C 334.399,163.386 336.899,163.053 339.5,165.5C 338.964,167.145 338.297,167.478 337.5,166.5 Z"/></g>
<g><path style="opacity:0.01" fill="#f7f7f7" d="M 334.5,173.5 C 334.842,172.662 335.508,172.328 336.5,172.5C 336.833,173.833 337.167,175.167 337.5,176.5C 335.668,177.718 334.668,177.051 334.5,174.5C 335.833,174.167 335.833,173.833 334.5,173.5 Z"/></g>
<g><path style="opacity:0.91" fill="#585655" d="M 100.5,156.5 C 101.167,156.5 101.833,156.5 102.5,156.5C 105.801,172.578 99.8008,183.244 84.5,188.5C 84.5,187.833 84.5,187.167 84.5,186.5C 97.8682,180.418 103.201,170.418 100.5,156.5 Z"/></g>
<g><path style="opacity:0.929" fill="#4c4c4c" d="M 414.5,167.5 C 415.338,167.158 415.672,166.492 415.5,165.5C 415.5,165.167 415.5,164.833 415.5,164.5C 419.002,161.88 422.502,161.88 426,164.5C 428.365,170.014 427.865,175.181 424.5,180C 419.615,181.718 416.449,180.218 415,175.5C 414.503,172.854 414.336,170.187 414.5,167.5 Z M 424.5,167.5 C 424.031,169.995 424.031,172.661 424.5,175.5C 423.594,177.914 421.928,178.747 419.5,178C 415.5,173.667 415.5,169.333 419.5,165C 421.928,164.253 423.594,165.086 424.5,167.5 Z"/></g>
<g><path style="opacity:0.009" fill="#fefffe" d="M 424.5,167.5 C 425.833,170.167 425.833,172.833 424.5,175.5C 424.031,172.661 424.031,169.995 424.5,167.5 Z"/></g>
<g><path style="opacity:0.886" fill="#6a6a6a" d="M 154.5,172.5 C 156.795,173.475 158.795,174.808 160.5,176.5C 159.508,176.328 158.842,176.662 158.5,177.5C 156.053,177.385 154.053,176.385 152.5,174.5C 153.167,173.833 153.833,173.167 154.5,172.5 Z"/></g>
<g><path style="opacity:0.941" fill="#52504f" d="M 63.5,163.5 C 64.609,163.557 65.609,163.89 66.5,164.5C 69.037,167.694 69.8703,171.361 69,175.5C 64.0551,180.409 60.8885,179.409 59.5,172.5C 60.6061,169.297 61.9395,166.297 63.5,163.5 Z M 66.5,174.5 C 64.5614,172.011 64.2281,172.344 65.5,175.5C 61.7746,173.208 61.608,170.542 65,167.5C 66.0758,169.067 66.9091,170.734 67.5,172.5C 67.4573,173.416 67.1239,174.083 66.5,174.5 Z"/></g>
<g><path style="opacity:0.01" fill="#fff7f7" d="M 66.5,174.5 C 66.5,175.167 66.1667,175.5 65.5,175.5C 64.2281,172.344 64.5614,172.011 66.5,174.5 Z"/></g>
<g><path style="opacity:0.933" fill="#656565" d="M 238.5,170.5 C 240.814,172.477 243.147,174.477 245.5,176.5C 244.209,176.263 243.209,176.596 242.5,177.5C 240.833,176.5 239.5,175.167 238.5,173.5C 238.5,172.5 238.5,171.5 238.5,170.5 Z"/></g>
<g><path style="opacity:0.012" fill="#f9f9f9" d="M 401.5,176.5 C 402.833,176.5 403.5,177.167 403.5,178.5C 402.5,178.167 401.833,177.5 401.5,176.5 Z"/></g>
<g><path style="opacity:0.925" fill="#666666" d="M 185.5,171.5 C 185.833,172.5 186.5,173.167 187.5,173.5C 184.748,181.216 179.415,186.216 171.5,188.5C 171.5,187.833 171.5,187.167 171.5,186.5C 177.915,183.086 182.582,178.086 185.5,171.5 Z"/></g>
<g><path style="opacity:0.929" fill="#505050" d="M 308.5,167.5 C 309.492,167.328 310.158,167.662 310.5,168.5C 310.5,168.833 310.5,169.167 310.5,169.5C 311.833,172.833 314.167,175.167 317.5,176.5C 318.492,176.328 319.158,176.662 319.5,177.5C 318.285,178.779 318.618,179.779 320.5,180.5C 327.478,186.431 335.478,188.431 344.5,186.5C 344.5,187.167 344.5,187.833 344.5,188.5C 336.375,190.359 328.708,189.193 321.5,185C 317.685,180.855 313.519,177.022 309,173.5C 308.505,171.527 308.338,169.527 308.5,167.5 Z"/></g>
<g><path style="opacity:0.039" fill="#e8e8e8" d="M 319.5,177.5 C 320.11,178.391 320.443,179.391 320.5,180.5C 318.618,179.779 318.285,178.779 319.5,177.5 Z"/></g>
<g><path style="opacity:0.886" fill="#656565" d="M 358.5,171.5 C 358.232,173.099 358.566,174.432 359.5,175.5C 356.38,181.909 351.38,186.242 344.5,188.5C 344.5,187.833 344.5,187.167 344.5,186.5C 350.576,182.759 355.243,177.759 358.5,171.5 Z"/></g>
<g><path style="opacity:0.765" fill="#565453" d="M 55.5,171.5 C 61.4297,183.632 71.0963,188.632 84.5,186.5C 84.5,187.167 84.5,187.833 84.5,188.5C 70.8722,191.281 60.8722,186.614 54.5,174.5C 55.404,173.791 55.7373,172.791 55.5,171.5 Z"/></g>
<g><path style="opacity:0.893" fill="#6a6a6a" d="M 227.5,171.5 C 230.808,178.141 235.808,183.141 242.5,186.5C 241.494,186.938 241.494,187.604 242.5,188.5C 233.632,186.566 227.965,181.233 225.5,172.5C 226.492,172.672 227.158,172.338 227.5,171.5 Z"/></g>
<g><path style="opacity:0.873" fill="#4a4a4a" d="M 436.5,182.5 C 436.5,183.167 436.5,183.833 436.5,184.5C 427.539,190.16 418.206,190.827 408.5,186.5C 408.5,185.167 409.167,184.5 410.5,184.5C 419.449,188.235 428.116,187.568 436.5,182.5 Z"/></g>
<g><path style="opacity:0.879" fill="#555555" d="M 185.5,263.5 C 184.596,262.791 184.263,261.791 184.5,260.5C 189.908,245.146 185.241,233.979 170.5,227C 149.165,225.501 139.498,235.334 141.5,256.5C 141.5,257.833 140.833,258.5 139.5,258.5C 135.366,238.419 143.366,226.752 163.5,223.5C 179.487,224.82 188.153,233.487 189.5,249.5C 189.045,254.459 187.711,259.126 185.5,263.5 Z"/></g>
<g><path style="opacity:0.88" fill="#4f4f4f" d="M 264.5,229.5 C 264.5,230.167 264.167,230.5 263.5,230.5C 255.537,226.002 247.203,225.335 238.5,228.5C 237.662,228.158 237.328,227.492 237.5,226.5C 241.416,225.249 245.416,224.249 249.5,223.5C 253.953,224.224 258.286,225.391 262.5,227C 263.381,227.708 264.047,228.542 264.5,229.5 Z"/></g>
<g><path style="opacity:0.898" fill="#484848" d="M 434.5,228.5 C 434.167,229.167 433.833,229.833 433.5,230.5C 425.719,225.523 417.719,225.19 409.5,229.5C 408.508,229.672 407.842,229.338 407.5,228.5C 416.528,223.228 425.528,223.228 434.5,228.5 Z"/></g>
<g><path style="opacity:0.953" fill="#555454" d="M 70.5,274.5 C 71.5676,273.566 72.901,273.232 74.5,273.5C 91.814,272.853 100.814,263.853 101.5,246.5C 100.925,243.088 99.5918,240.088 97.5,237.5C 88.8375,226.058 78.1709,223.725 65.5,230.5C 64.1667,230.5 63.5,229.833 63.5,228.5C 76.735,221.693 88.5683,223.693 99,234.5C 106.246,248.055 104.413,260.221 93.5,271C 86.2589,275.189 78.5923,276.356 70.5,274.5 Z"/></g>
<g><path style="opacity:0.879" fill="#696969" d="M 360.5,244.5 C 359.5,244.833 358.833,245.5 358.5,246.5C 355.62,234.127 347.787,227.127 335,225.5C 313.888,231.056 307.888,243.722 317,263.5C 319.063,265.734 321.229,267.734 323.5,269.5C 322.167,269.5 321.5,270.167 321.5,271.5C 309.71,261.734 306.877,249.734 313,235.5C 321.831,224.498 332.997,221.331 346.5,226C 354.423,229.75 359.09,235.917 360.5,244.5 Z"/></g>
<g><path style="opacity:0.916" fill="#7c7a7a" d="M 63.5,228.5 C 63.5,229.833 64.1667,230.5 65.5,230.5C 62.5,232.833 59.8333,235.5 57.5,238.5C 57.5912,236.302 56.9245,235.969 55.5,237.5C 57.0143,233.469 59.681,230.469 63.5,228.5 Z"/></g>
<g><path style="opacity:0.9" fill="#6c6c6c" d="M 407.5,228.5 C 407.842,229.338 408.508,229.672 409.5,229.5C 406.167,232.167 403.167,235.167 400.5,238.5C 400.158,237.662 399.492,237.328 398.5,237.5C 400.522,233.478 403.522,230.478 407.5,228.5 Z"/></g>
<g><path style="opacity:0.007" fill="#f5f5f5" d="M 97.5,237.5 C 99.5918,240.088 100.925,243.088 101.5,246.5C 100.778,246.918 100.278,247.584 100,248.5C 98.6905,244.93 97.8572,241.263 97.5,237.5 Z"/></g>
<g><path style="opacity:0.851" fill="#5c5c5c" d="M 237.5,226.5 C 237.328,227.492 237.662,228.158 238.5,228.5C 234.863,231.306 231.696,234.639 229,238.5C 226.647,242.444 226.147,246.444 227.5,250.5C 225.969,251.925 226.302,252.591 228.5,252.5C 227.791,253.404 226.791,253.737 225.5,253.5C 224.167,253.5 223.5,254.167 223.5,255.5C 223.733,257.062 224.4,258.395 225.5,259.5C 224.209,259.263 223.209,259.596 222.5,260.5C 220.867,256.909 221.367,253.576 224,250.5C 223.665,239.693 228.165,231.693 237.5,226.5 Z"/></g>
<g><path style="opacity:0.953" fill="#505050" d="M 69.5,242.5 C 69.1583,241.662 68.4916,241.328 67.5,241.5C 66.1851,240.524 64.8518,239.524 63.5,238.5C 63.8076,237.692 64.3076,237.025 65,236.5C 67,237.833 69,239.167 71,240.5C 71.5281,241.816 71.0281,242.483 69.5,242.5 Z"/></g>
<g><path style="opacity:0.925" fill="#4c4949" d="M 87.5,242.5 C 86.325,242.719 85.325,242.386 84.5,241.5C 86.2279,239.774 88.2279,238.441 90.5,237.5C 91.521,238.002 91.6877,238.668 91,239.5C 89.8549,240.636 88.6883,241.636 87.5,242.5 Z"/></g>
<g><path style="opacity:0.008" fill="#f9f9f9" d="M 400.5,239.5 C 401.439,240.327 401.105,240.994 399.5,241.5C 399.328,240.508 399.662,239.842 400.5,239.5 Z"/></g>
<g><path style="opacity:0.009" fill="#fbfbfb" d="M 54.5,239.5 C 53.8333,241.833 53.1667,244.167 52.5,246.5C 50.8846,243.598 51.5512,241.265 54.5,239.5 Z"/></g>
<g><path style="opacity:0.894" fill="#505050" d="M 434.5,228.5 C 443.818,234.481 447.818,243.148 446.5,254.5C 445.833,254.5 445.167,254.5 444.5,254.5C 445.126,244.426 441.46,236.426 433.5,230.5C 433.833,229.833 434.167,229.167 434.5,228.5 Z"/></g>
<g><path style="opacity:0.01" fill="#eeeeee" d="M 67.5,241.5 C 68.4916,241.328 69.1583,241.662 69.5,242.5C 68.6618,242.842 68.3284,243.508 68.5,244.5C 67.609,243.89 66.609,243.557 65.5,243.5C 66.1667,242.833 66.8333,242.167 67.5,241.5 Z"/></g>
<g><path style="opacity:0.91" fill="#515151" d="M 349.5,243.5 C 345.542,244.538 345.542,245.538 349.5,246.5C 349.719,247.675 349.386,248.675 348.5,249.5C 341.051,247.335 340.718,244.669 347.5,241.5C 348.713,241.747 349.38,242.414 349.5,243.5 Z"/></g>
<g><path style="opacity:0.916" fill="#565656" d="M 149.5,242.5 C 151.527,242.338 153.527,242.505 155.5,243C 156.821,244.545 156.488,245.711 154.5,246.5C 153.167,245.167 151.833,245.167 150.5,246.5C 148.358,245.563 148.024,244.23 149.5,242.5 Z"/></g>
<g><path style="opacity:0.939" fill="#565656" d="M 320.5,241.5 C 322.655,241.372 324.655,241.872 326.5,243C 327.887,246.48 326.554,248.313 322.5,248.5C 321.833,248.167 321.167,247.833 320.5,247.5C 321.623,245.518 321.623,243.518 320.5,241.5 Z"/></g>
<g><path style="opacity:0.016" fill="#f1f1f1" d="M 413.5,242.5 C 413.5,243.5 413.5,244.5 413.5,245.5C 410.833,244.5 410.833,243.5 413.5,242.5 Z"/></g>
<g><path style="opacity:0.979" fill="#575856" d="M 65.5,243.5 C 66.609,243.557 67.609,243.89 68.5,244.5C 69.7103,246.176 69.2103,247.51 67,248.5C 64.6475,247.182 64.1475,245.515 65.5,243.5 Z"/></g>
<g><path style="opacity:0.986" fill="#2f2f2f" d="M 176.5,242.5 C 175.965,244.446 174.632,245.446 172.5,245.5C 172.5,244.167 172.5,242.833 172.5,241.5C 174.099,241.232 175.432,241.566 176.5,242.5 Z"/></g>
<g><path style="opacity:0.98" fill="#525252" d="M 260.5,241.5 C 261.5,241.5 262.5,241.5 263.5,241.5C 263.67,242.822 263.337,243.989 262.5,245C 264.852,247.15 264.685,248.316 262,248.5C 255.426,247.149 254.926,244.816 260.5,241.5 Z"/></g>
<g><path style="opacity:0.01" fill="#f3f3f3" d="M 349.5,243.5 C 350.625,244.348 350.625,245.348 349.5,246.5C 345.542,245.538 345.542,244.538 349.5,243.5 Z"/></g>
<g><path style="opacity:0.008" fill="#f3f3f3" d="M 398.5,243.5 C 399.726,247.367 399.726,251.367 398.5,255.5C 397.209,251.601 397.209,247.601 398.5,243.5 Z"/></g>
<g><path style="opacity:0.012" fill="#f2f2f2" d="M 406.5,242.5 C 409.167,243.5 409.167,244.5 406.5,245.5C 406.5,244.5 406.5,243.5 406.5,242.5 Z"/></g>
<g><path style="opacity:0.012" fill="#eeeeee" d="M 428.5,242.5 C 431.167,243.5 431.167,244.5 428.5,245.5C 428.5,244.5 428.5,243.5 428.5,242.5 Z"/></g>
<g><path style="opacity:0.008" fill="#f2f2f2" d="M 435.5,242.5 C 435.5,243.5 435.5,244.5 435.5,245.5C 432.833,244.5 432.833,243.5 435.5,242.5 Z"/></g>
<g><path style="opacity:0.933" fill="#808080" d="M 176.5,242.5 C 177.791,243.542 177.791,244.708 176.5,246C 174.934,246.765 173.601,246.598 172.5,245.5C 174.632,245.446 175.965,244.446 176.5,242.5 Z"/></g>
<g><path style="opacity:0.886" fill="#525252" d="M 430.5,240.5 C 431.5,243.167 432.5,243.167 433.5,240.5C 433.435,240.062 433.601,239.728 434,239.5C 436.158,240.05 436.658,241.05 435.5,242.5C 432.833,243.5 432.833,244.5 435.5,245.5C 436.658,246.95 436.158,247.95 434,248.5C 432.518,246.219 430.851,246.219 429,248.5C 428.517,247.552 428.351,246.552 428.5,245.5C 431.167,244.5 431.167,243.5 428.5,242.5C 428.281,241.325 428.614,240.325 429.5,239.5C 430.107,239.624 430.44,239.957 430.5,240.5 Z"/></g>
<g><path style="opacity:0.018" fill="#f3f3f3" d="M 430.5,240.5 C 431.5,240.5 432.5,240.5 433.5,240.5C 432.5,243.167 431.5,243.167 430.5,240.5 Z"/></g>
<g><path style="opacity:0.918" fill="#474747" d="M 237.5,248.5 C 237.167,247.167 236.833,245.833 236.5,244.5C 233.875,243.534 233.875,242.534 236.5,241.5C 238.795,242.136 240.461,243.469 241.5,245.5C 240.9,247.468 239.567,248.468 237.5,248.5 Z"/></g>
<g><path style="opacity:0.875" fill="#393939" d="M 413.5,242.5 C 410.833,243.5 410.833,244.5 413.5,245.5C 413.719,246.675 413.386,247.675 412.5,248.5C 411.893,248.376 411.56,248.043 411.5,247.5C 410.5,244.833 409.5,244.833 408.5,247.5C 407.167,247.5 406.5,246.833 406.5,245.5C 409.167,244.5 409.167,243.5 406.5,242.5C 406.35,239.074 407.516,238.741 410,241.5C 411.756,240.015 412.923,240.348 413.5,242.5 Z"/></g>
<g><path style="opacity:0.945" fill="#666566" d="M 87.5,242.5 C 92.1156,243.982 92.4489,245.982 88.5,248.5C 87.2801,248.113 86.6135,247.28 86.5,246C 86.9891,244.862 87.3225,243.695 87.5,242.5 Z"/></g>
<g><path style="opacity:0.892" fill="#302f30" d="M 360.5,244.5 C 360.769,248.931 360.436,253.265 359.5,257.5C 358.508,257.672 357.842,257.338 357.5,256.5C 358.324,253.236 358.658,249.902 358.5,246.5C 358.833,245.5 359.5,244.833 360.5,244.5 Z"/></g>
<g><path style="opacity:0.014" fill="#efefef" d="M 411.5,247.5 C 410.5,248.833 409.5,248.833 408.5,247.5C 409.5,244.833 410.5,244.833 411.5,247.5 Z"/></g>
<g><path style="opacity:0.875" fill="#494746" d="M 57.5,238.5 C 53.5825,246.552 53.9158,254.552 58.5,262.5C 58.1583,263.338 57.4916,263.672 56.5,263.5C 55.8333,263.5 55.5,263.167 55.5,262.5C 54.4986,259.828 53.4986,257.162 52.5,254.5C 51.7459,251.922 51.7459,249.256 52.5,246.5C 53.1667,244.167 53.8333,241.833 54.5,239.5C 54.8333,238.833 55.1667,238.167 55.5,237.5C 56.9245,235.969 57.5912,236.302 57.5,238.5 Z"/></g>
<g><path style="opacity:0.886" fill="#909090" d="M 236.5,244.5 C 236.833,245.833 237.167,247.167 237.5,248.5C 236.503,249.713 235.503,249.546 234.5,248C 235.305,246.887 235.972,245.721 236.5,244.5 Z"/></g>
<g><path style="opacity:0.922" fill="#5b5b5a" d="M 264.5,229.5 C 267.764,230.927 270.264,233.261 272,236.5C 273.668,241.881 275.335,247.214 277,252.5C 278.718,257.385 277.218,260.551 272.5,262C 268.961,268.379 263.627,272.212 256.5,273.5C 256.158,272.662 255.492,272.328 254.5,272.5C 260.905,270.617 265.905,266.784 269.5,261C 267.203,257.113 266.369,252.946 267,248.5C 271.905,251.278 273.572,249.612 272,243.5C 270.163,238.488 267.33,234.154 263.5,230.5C 264.167,230.5 264.5,230.167 264.5,229.5 Z M 269.5,252.5 C 271.901,253.018 273.901,254.185 275.5,256C 274.818,259.732 273.318,260.232 271,257.5C 269.991,255.975 269.491,254.308 269.5,252.5 Z"/></g>
<g><path style="opacity:0.908" fill="#363636" d="M 262.5,255.5 C 262.167,255.5 261.833,255.5 261.5,255.5C 258.713,254.523 255.713,254.19 252.5,254.5C 248.167,254.5 243.833,254.5 239.5,254.5C 238.167,254.5 236.833,254.5 235.5,254.5C 235.281,253.325 235.614,252.325 236.5,251.5C 245.167,252.833 253.833,252.833 262.5,251.5C 263.782,252.958 263.782,254.292 262.5,255.5 Z"/></g>
<g><path style="opacity:0.012" fill="#ebebeb" d="M 225.5,253.5 C 225.167,254.5 224.5,255.167 223.5,255.5C 223.5,254.167 224.167,253.5 225.5,253.5 Z"/></g>
<g><path style="opacity:0.007" fill="#f8f8f8" d="M 252.5,254.5 C 255.713,254.19 258.713,254.523 261.5,255.5C 260.833,255.833 260.167,256.167 259.5,256.5C 257.167,255.833 254.833,255.167 252.5,254.5 Z"/></g>
<g><path style="opacity:0.887" fill="#575757" d="M 333.5,257.5 C 334.5,258.833 335.5,258.833 336.5,257.5C 338.407,254.668 341.073,253.834 344.5,255C 345.211,256.255 346.044,257.421 347,258.5C 348.241,256.579 349.741,256.246 351.5,257.5C 349.927,260.193 347.593,261.026 344.5,260C 343.897,257.929 342.564,256.762 340.5,256.5C 339.094,256.973 338.427,257.973 338.5,259.5C 336.712,260.622 334.712,260.789 332.5,260C 330.5,255.333 328.5,255.333 326.5,260C 323.107,262.491 320.773,261.824 319.5,258C 320.648,256.274 321.815,256.441 323,258.5C 325.206,254.875 328.373,253.708 332.5,255C 333.252,255.671 333.586,256.504 333.5,257.5 Z"/></g>
<g><path style="opacity:0.873" fill="#605e5e" d="M 74.5,252.5 C 82.0237,251.49 87.3571,254.323 90.5,261C 90.1667,261.5 89.8333,262 89.5,262.5C 81.2015,251.531 73.3682,251.865 66,263.5C 65.3333,261.833 65.3333,260.167 66,258.5C 68.6713,256.098 71.5046,254.098 74.5,252.5 Z"/></g>
<g><path style="opacity:0.012" fill="#f8f8f8" d="M 336.5,257.5 C 335.5,258.833 334.5,258.833 333.5,257.5C 334.5,256.167 335.5,256.167 336.5,257.5 Z"/></g>
<g><path style="opacity:0.889" fill="#616161" d="M 444.5,254.5 C 445.167,254.5 445.833,254.5 446.5,254.5C 445.089,262.673 440.755,268.673 433.5,272.5C 433.167,271.833 432.833,271.167 432.5,270.5C 435.104,268.4 437.604,266.067 440,263.5C 441.546,260.408 443.046,257.408 444.5,254.5 Z"/></g>
<g><path style="opacity:0.012" fill="#eaeaea" d="M 340.5,256.5 C 340.573,258.027 339.906,259.027 338.5,259.5C 338.427,257.973 339.094,256.973 340.5,256.5 Z"/></g>
<g><path style="opacity:0.912" fill="#515151" d="M 398.5,237.5 C 399.492,237.328 400.158,237.662 400.5,238.5C 400.5,238.833 400.5,239.167 400.5,239.5C 399.662,239.842 399.328,240.508 399.5,241.5C 399.167,242.167 398.833,242.833 398.5,243.5C 397.209,247.601 397.209,251.601 398.5,255.5C 399.404,256.209 399.737,257.209 399.5,258.5C 399.427,260.027 400.094,261.027 401.5,261.5C 409.274,273.029 419.608,276.029 432.5,270.5C 432.833,271.167 433.167,271.833 433.5,272.5C 421.335,277.751 410.501,275.751 401,266.5C 394.641,257.335 393.808,247.668 398.5,237.5 Z"/></g>
<g><path style="opacity:0.008" fill="#f2f2f2" d="M 52.5,254.5 C 53.4986,257.162 54.4986,259.828 55.5,262.5C 53.4331,260.682 52.0997,258.349 51.5,255.5C 51.6236,254.893 51.9569,254.56 52.5,254.5 Z"/></g>
<g><path style="opacity:0.941" fill="#5d5d5d" d="M 232.5,265.5 C 232.577,266.75 233.244,267.583 234.5,268C 233.906,268.464 233.239,268.631 232.5,268.5C 229.998,266.83 227.998,264.664 226.5,262C 224.942,261.79 223.609,261.29 222.5,260.5C 223.209,259.596 224.209,259.263 225.5,259.5C 228.097,258.068 229.763,255.901 230.5,253C 229.906,252.536 229.239,252.369 228.5,252.5C 226.302,252.591 225.969,251.925 227.5,250.5C 228.807,249.847 230.14,249.18 231.5,248.5C 232.688,252.925 232.022,257.092 229.5,261C 230.883,262.271 231.883,263.771 232.5,265.5 Z"/></g>
<g><path style="opacity:0.012" fill="#fafafa" d="M 399.5,258.5 C 400.906,258.973 401.573,259.973 401.5,261.5C 400.094,261.027 399.427,260.027 399.5,258.5 Z"/></g>
<g><path style="opacity:0.933" fill="#5e5e5e" d="M 418.5,256.5 C 419.668,259.469 421.001,259.802 422.5,257.5C 425.256,253.533 427.923,253.533 430.5,257.5C 431.221,259.382 432.221,259.715 433.5,258.5C 436.504,256.064 437.171,256.898 435.5,261C 431.795,262.313 429.462,261.146 428.5,257.5C 425.79,256.146 424.123,257.146 423.5,260.5C 420.553,262.109 418.22,261.442 416.5,258.5C 414.949,256.018 413.616,256.352 412.5,259.5C 409.913,263.229 407.246,263.063 404.5,259C 405.05,256.842 406.05,256.342 407.5,257.5C 408.221,259.382 409.221,259.715 410.5,258.5C 412.585,254.683 415.252,254.016 418.5,256.5 Z"/></g>
<g><path style="opacity:0.012" fill="#e4e4e4" d="M 430.5,257.5 C 431.609,257.557 432.609,257.89 433.5,258.5C 432.221,259.715 431.221,259.382 430.5,257.5 Z"/></g>
<g><path style="opacity:0.008" fill="#ededed" d="M 428.5,257.5 C 427.887,259.043 426.221,260.043 423.5,260.5C 424.123,257.146 425.79,256.146 428.5,257.5 Z"/></g>
<g><path style="opacity:0.013" fill="#fefffe" d="M 418.5,256.5 C 419.959,256.433 421.292,256.766 422.5,257.5C 421.001,259.802 419.668,259.469 418.5,256.5 Z"/></g>
<g><path style="opacity:0.009" fill="#f9f9f9" d="M 416.5,258.5 C 415.292,259.234 413.959,259.567 412.5,259.5C 413.616,256.352 414.949,256.018 416.5,258.5 Z"/></g>
<g><path style="opacity:0.012" fill="#f9f9f9" d="M 410.5,258.5 C 409.221,259.715 408.221,259.382 407.5,257.5C 408.117,257.389 408.617,257.056 409,256.5C 409.278,257.416 409.778,258.082 410.5,258.5 Z"/></g>
<g><path style="opacity:0.902" fill="#616161" d="M 235.5,254.5 C 236.833,254.5 238.167,254.5 239.5,254.5C 239.751,256.17 240.418,257.67 241.5,259C 248.171,263.673 254.171,262.839 259.5,256.5C 260.167,256.167 260.833,255.833 261.5,255.5C 261.833,255.5 262.167,255.5 262.5,255.5C 262.16,257.679 261.16,259.512 259.5,261C 252.884,265.651 246.217,265.651 239.5,261C 237.334,259.322 236.001,257.155 235.5,254.5 Z"/></g>
<g><path style="opacity:0.808" fill="#5d5d5c" d="M 150.5,251.5 C 152.543,255.017 155.209,258.184 158.5,261C 167.801,264.164 173.134,260.997 174.5,251.5C 177.524,251.364 179.024,252.698 179,255.5C 167.802,267.822 157.302,267.322 147.5,254C 148.571,253.148 149.571,252.315 150.5,251.5 Z"/></g>
<g><path style="opacity:0.956" fill="#646464" d="M 357.5,256.5 C 357.842,257.338 358.508,257.672 359.5,257.5C 357.167,265.833 351.833,271.167 343.5,273.5C 342.791,272.596 341.791,272.263 340.5,272.5C 348.076,269.259 353.743,263.925 357.5,256.5 Z"/></g>
<g><path style="opacity:0.868" fill="#787878" d="M 232.5,265.5 C 236.051,268.742 240.051,271.076 244.5,272.5C 242.901,272.232 241.568,272.566 240.5,273.5C 237.296,272.56 234.63,270.893 232.5,268.5C 233.239,268.631 233.906,268.464 234.5,268C 233.244,267.583 232.577,266.75 232.5,265.5 Z"/></g>
<g><path style="opacity:0.894" fill="#656464" d="M 58.5,262.5 C 62.753,267.755 68.0863,271.422 74.5,273.5C 72.901,273.232 71.5676,273.566 70.5,274.5C 64.0396,273.032 59.3729,269.365 56.5,263.5C 57.4916,263.672 58.1583,263.338 58.5,262.5 Z"/></g>
<g><path style="opacity:0.847" fill="#5e5e5e" d="M 141.5,256.5 C 147.975,270.848 158.642,275.681 173.5,271C 177.695,267.97 181.361,264.47 184.5,260.5C 184.263,261.791 184.596,262.791 185.5,263.5C 174.719,276.131 162.053,278.297 147.5,270C 143.714,266.923 141.048,263.089 139.5,258.5C 140.833,258.5 141.5,257.833 141.5,256.5 Z"/></g>
<g><path style="opacity:0.881" fill="#3c3c3c" d="M 323.5,269.5 C 328.817,272.004 334.484,273.004 340.5,272.5C 341.791,272.263 342.791,272.596 343.5,273.5C 335.93,275.226 328.597,274.559 321.5,271.5C 321.5,270.167 322.167,269.5 323.5,269.5 Z"/></g>
<g><path style="opacity:0.91" fill="#3b3b3b" d="M 240.5,273.5 C 241.568,272.566 242.901,272.232 244.5,272.5C 247.833,272.5 251.167,272.5 254.5,272.5C 255.492,272.328 256.158,272.662 256.5,273.5C 251.266,274.802 245.933,274.802 240.5,273.5 Z"/></g>
<g><path style="opacity:0.873" fill="#5c5c5c" d="M 343.5,310.5 C 345.031,311.925 344.698,312.591 342.5,312.5C 338.434,312.693 334.434,312.36 330.5,311.5C 329.167,311.5 327.833,311.5 326.5,311.5C 326.918,310.778 327.584,310.278 328.5,310C 333.684,309.184 338.684,309.35 343.5,310.5 Z"/></g>
<g><path style="opacity:0.859" fill="#565453" d="M 100.5,322.5 C 99.5,322.833 98.8333,323.5 98.5,324.5C 88.4993,309.883 76.166,307.716 61.5,318C 58.7447,322.019 56.4113,326.185 54.5,330.5C 54.0623,329.494 53.3957,329.494 52.5,330.5C 54.7451,319.425 61.7451,312.591 73.5,310C 85.3366,308.355 94.3366,312.521 100.5,322.5 Z"/></g>
<g><path style="opacity:0.849" fill="#5d5d5d" d="M 433.5,312.5 C 433.672,313.492 433.338,314.158 432.5,314.5C 418.666,308.725 407.666,312.392 399.5,325.5C 398.391,325.557 397.391,325.89 396.5,326.5C 400.849,315.147 409.182,309.48 421.5,309.5C 425.822,309.334 429.822,310.334 433.5,312.5 Z"/></g>
<g><path style="opacity:0.882" fill="#4c4c4c" d="M 261.5,312.5 C 262.116,313.798 262.116,314.798 261.5,315.5C 254.342,310.951 246.675,310.618 238.5,314.5C 237.375,313.652 237.375,312.652 238.5,311.5C 246.418,308.623 254.084,308.956 261.5,312.5 Z"/></g>
<g><path style="opacity:0.891" fill="#6a6a69" d="M 171.5,311.5 C 180.039,313.037 185.372,318.037 187.5,326.5C 186.662,326.842 186.328,327.508 186.5,328.5C 183.141,321.141 177.808,315.808 170.5,312.5C 171.167,312.5 171.5,312.167 171.5,311.5 Z"/></g>
<g><path style="opacity:0.918" fill="#787877" d="M 238.5,311.5 C 237.375,312.652 237.375,313.652 238.5,314.5C 231.657,318.664 227.657,324.664 226.5,332.5C 226.795,330.265 226.461,328.265 225.5,326.5C 227.339,319.329 231.672,314.329 238.5,311.5 Z"/></g>
<g><path style="opacity:0.925" fill="#646362" d="M 261.5,312.5 C 268.443,316.117 272.777,321.784 274.5,329.5C 273.833,329.5 273.167,329.5 272.5,329.5C 270.356,323.684 266.69,319.017 261.5,315.5C 262.116,314.798 262.116,313.798 261.5,312.5 Z"/></g>
<g><path style="opacity:0.892" fill="#555555" d="M 171.5,311.5 C 171.5,312.167 171.167,312.5 170.5,312.5C 156.177,310.248 146.344,315.915 141,329.5C 139.246,338.064 141.413,345.398 147.5,351.5C 146.167,351.5 145.5,352.167 145.5,353.5C 138.925,346.476 136.758,338.143 139,328.5C 144.8,312.852 155.633,307.185 171.5,311.5 Z"/></g>
<g><path style="opacity:0.922" fill="#5b5756" d="M 64.5,322.5 C 67.1161,323.48 69.4494,324.98 71.5,327C 68.3487,327.393 65.682,326.393 63.5,324C 64.056,323.617 64.3893,323.117 64.5,322.5 Z"/></g>
<g><path style="opacity:0.927" fill="#54504f" d="M 100.5,322.5 C 105.017,332.854 104.017,342.52 97.5,351.5C 96.6618,351.158 96.3284,350.492 96.5,349.5C 102.067,341.538 102.734,333.205 98.5,324.5C 98.8333,323.5 99.5,322.833 100.5,322.5 Z"/></g>
<g><path style="opacity:0.847" fill="#696969" d="M 343.5,310.5 C 353.011,313.346 358.677,319.68 360.5,329.5C 359.833,329.5 359.167,329.5 358.5,329.5C 355.25,321.915 349.917,316.249 342.5,312.5C 344.698,312.591 345.031,311.925 343.5,310.5 Z"/></g>
<g><path style="opacity:0.837" fill="#61615d" d="M 89.5,322.5 C 91.4646,322.948 91.7979,323.948 90.5,325.5C 81.6441,328.326 81.3107,327.326 89.5,322.5 Z"/></g>
<g><path style="opacity:0.98" fill="#525252" d="M 258.5,325.5 C 264.235,324.821 265.902,327.155 263.5,332.5C 259.946,335.016 257.613,334.016 256.5,329.5C 256.803,327.886 257.47,326.552 258.5,325.5 Z"/></g>
<g><path style="opacity:0.871" fill="#616161" d="M 433.5,312.5 C 440.266,316.681 444.599,322.681 446.5,330.5C 445.833,330.5 445.167,330.5 444.5,330.5C 443.046,327.592 441.546,324.592 440,321.5C 437.604,318.933 435.104,316.6 432.5,314.5C 433.338,314.158 433.672,313.492 433.5,312.5 Z"/></g>
<g><path style="opacity:0.833" fill="#4a4a4a" d="M 345.5,326.5 C 346.5,326.5 347.5,326.5 348.5,326.5C 348.949,328.977 348.283,330.977 346.5,332.5C 344.261,330.867 343.928,328.867 345.5,326.5 Z"/></g>
<g><path style="opacity:0.013" fill="#f1f1f1" d="M 400.5,335.5 C 399.167,335.833 399.167,336.167 400.5,336.5C 400.332,340.169 401.332,343.502 403.5,346.5C 403,347.5 402.5,348.5 402,349.5C 398.979,344.938 397.479,339.938 397.5,334.5C 398.833,334.167 398.833,333.833 397.5,333.5C 397.232,331.901 397.566,330.568 398.5,329.5C 399.117,329.389 399.617,329.056 400,328.5C 400.497,330.81 400.663,333.143 400.5,335.5 Z"/></g>
<g><path style="opacity:0.915" fill="#454545" d="M 412.5,332.5 C 411.29,332.932 410.29,333.599 409.5,334.5C 409.167,334.5 408.833,334.5 408.5,334.5C 407.833,334.5 407.167,334.5 406.5,334.5C 406.557,333.391 406.89,332.391 407.5,331.5C 409.793,330.699 409.46,330.032 406.5,329.5C 408.344,327.114 410.511,327.114 413,329.5C 413.74,330.749 413.573,331.749 412.5,332.5 Z"/></g>
<g><path style="opacity:0.884" fill="#4b4545" d="M 65.5,328.5 C 70.0165,329.625 70.3498,331.292 66.5,333.5C 64.2957,332.218 63.9624,330.551 65.5,328.5 Z"/></g>
<g><path style="opacity:0.873" fill="#474747" d="M 321.5,327.5 C 323.199,327.34 324.866,327.506 326.5,328C 327.731,329.183 327.731,330.349 326.5,331.5C 324.584,330.752 322.584,330.752 320.5,331.5C 320.433,330.041 320.766,328.708 321.5,327.5 Z"/></g>
<g><path style="opacity:0.988" fill="#404040" d="M 435.5,329.5 C 431.542,330.462 431.542,331.462 435.5,332.5C 435.5,332.833 435.5,333.167 435.5,333.5C 434.368,334.354 433.035,334.354 431.5,333.5C 431.158,332.662 430.492,332.328 429.5,332.5C 428.427,331.749 428.26,330.749 429,329.5C 430.667,328.5 432.333,327.5 434,326.5C 435.039,327.244 435.539,328.244 435.5,329.5 Z"/></g>
<g><path style="opacity:0.009" fill="#f6f6f6" d="M 435.5,329.5 C 436.833,330.5 436.833,331.5 435.5,332.5C 431.542,331.462 431.542,330.462 435.5,329.5 Z"/></g>
<g><path style="opacity:1" fill="#4c4b49" d="M 88.5,327.5 C 92.4735,329.46 92.4735,331.46 88.5,333.5C 86.0006,331.604 86.0006,329.604 88.5,327.5 Z"/></g>
<g><path style="opacity:0.924" fill="#696969" d="M 174.5,327.5 C 178.876,326.888 179.543,328.054 176.5,331C 179.333,332.833 179.167,334.333 176,335.5C 170.865,333.336 170.365,330.669 174.5,327.5 Z"/></g>
<g><path style="opacity:0.98" fill="#474747" d="M 236.5,325.5 C 238.379,326.341 240.379,326.675 242.5,326.5C 243.227,330.224 241.894,332.891 238.5,334.5C 233.116,332.096 232.449,329.096 236.5,325.5 Z"/></g>
<g><path style="opacity:0.067" fill="#d2d2d2" d="M 406.5,329.5 C 409.46,330.032 409.793,330.699 407.5,331.5C 407.167,330.833 406.833,330.167 406.5,329.5 Z"/></g>
<g><path style="opacity:0.01" fill="#fefffe" d="M 407.5,331.5 C 406.89,332.391 406.557,333.391 406.5,334.5C 405.115,333.053 405.448,332.053 407.5,331.5 Z"/></g>
<g><path style="opacity:0.869" fill="#4a4a4a" d="M 149.5,327.5 C 158.623,329.614 158.623,331.947 149.5,334.5C 150.833,332.167 150.833,329.833 149.5,327.5 Z"/></g>
<g><path style="opacity:0.894" fill="#5b5b5a" d="M 326.5,311.5 C 327.833,311.5 329.167,311.5 330.5,311.5C 315.845,316.838 310.178,327.172 313.5,342.5C 313.768,344.099 313.434,345.432 312.5,346.5C 307.465,334.179 309.799,323.346 319.5,314C 321.441,312.097 323.774,311.264 326.5,311.5 Z"/></g>
<g><path style="opacity:0.008" fill="#f9f9f9" d="M 412.5,332.5 C 413.292,334.756 412.292,336.09 409.5,336.5C 408.391,336.557 407.391,336.89 406.5,337.5C 406.5,336.5 406.5,335.5 406.5,334.5C 407.167,334.5 407.833,334.5 408.5,334.5C 408.833,335.833 409.167,335.833 409.5,334.5C 410.29,333.599 411.29,332.932 412.5,332.5 Z"/></g>
<g><path style="opacity:0.013" fill="#fefffe" d="M 429.5,332.5 C 430.492,332.328 431.158,332.662 431.5,333.5C 430.075,335.031 429.409,334.698 429.5,332.5 Z"/></g>
<g><path style="opacity:0.873" fill="#2a2a2a" d="M 358.5,329.5 C 359.167,329.5 359.833,329.5 360.5,329.5C 360.5,333.167 360.5,336.833 360.5,340.5C 359.508,340.672 358.842,340.338 358.5,339.5C 358.5,336.167 358.5,332.833 358.5,329.5 Z"/></g>
<g><path style="opacity:0.013" fill="#f5f5f5" d="M 431.5,333.5 C 433.035,334.354 434.368,334.354 435.5,333.5C 436.533,334.912 437.199,336.578 437.5,338.5C 437.253,339.713 436.586,340.38 435.5,340.5C 435.762,339.022 435.429,337.689 434.5,336.5C 433.702,336.957 433.369,337.624 433.5,338.5C 432.711,338.217 432.044,337.717 431.5,337C 432.684,335.855 432.684,334.688 431.5,333.5 Z"/></g>
<g><path style="opacity:0.911" fill="#575757" d="M 415.5,336.5 C 420.777,335.931 425.777,336.765 430.5,339C 429.892,339.87 429.059,340.37 428,340.5C 424.249,337.981 420.582,337.981 417,340.5C 415.984,339.366 415.317,339.699 415,341.5C 411.899,339.66 412.065,337.993 415.5,336.5 Z"/></g>
<g><path style="opacity:0.958" fill="#6d6d6d" d="M 332.5,342.5 C 330.517,342.157 329.183,342.824 328.5,344.5C 325.393,343.111 322.393,341.445 319.5,339.5C 319.977,338.522 320.643,337.689 321.5,337C 324.779,339.405 328.445,341.238 332.5,342.5 Z"/></g>
<g><path style="opacity:0.861" fill="#626261" d="M 225.5,326.5 C 226.461,328.265 226.795,330.265 226.5,332.5C 226.269,336.993 226.936,341.326 228.5,345.5C 228.158,346.338 227.492,346.672 226.5,346.5C 223.324,339.838 222.991,333.171 225.5,326.5 Z"/></g>
<g><path style="opacity:0.008" fill="#f4f4f4" d="M 409.5,338.5 C 411.519,339.538 411.853,340.872 410.5,342.5C 409.5,342.167 408.833,341.5 408.5,340.5C 409.338,340.158 409.672,339.492 409.5,338.5 Z"/></g>
<g><path style="opacity:0.937" fill="#5f5d5e" d="M 74.5,333.5 C 76.8568,333.337 79.1902,333.503 81.5,334C 84.7231,338.897 85.2231,344.063 83,349.5C 75.0448,354.765 71.2114,352.432 71.5,342.5C 71.1402,338.99 72.1402,335.99 74.5,333.5 Z M 75.5,336.5 C 80.0817,336.12 82.415,338.287 82.5,343C 78.7714,351.769 75.7714,351.436 73.5,342C 73.7579,339.991 74.4245,338.157 75.5,336.5 Z"/></g>
<g><path style="opacity:0.843" fill="#4e4e4c" d="M 187.5,326.5 C 188.298,329.171 188.965,332.004 189.5,335C 188.965,337.996 188.298,340.829 187.5,343.5C 186.662,343.158 186.328,342.492 186.5,341.5C 186.5,337.167 186.5,332.833 186.5,328.5C 186.328,327.508 186.662,326.842 187.5,326.5 Z"/></g>
<g><path style="opacity:0.91" fill="#6a6a6a" d="M 358.5,339.5 C 358.842,340.338 359.508,340.672 360.5,340.5C 359.005,347.181 355.339,352.181 349.5,355.5C 349.158,354.662 348.492,354.328 347.5,354.5C 352.887,350.711 356.554,345.711 358.5,339.5 Z"/></g>
<g><path style="opacity:0.905" fill="#5c5c5a" d="M 54.5,330.5 C 54.251,336.081 55.251,341.414 57.5,346.5C 57.7373,347.791 57.404,348.791 56.5,349.5C 55.6618,349.158 55.3284,348.492 55.5,347.5C 55.0113,346.005 54.3446,344.671 53.5,343.5C 51.3052,339.324 50.9718,334.991 52.5,330.5C 53.3957,329.494 54.0623,329.494 54.5,330.5 Z"/></g>
<g><path style="opacity:0.901" fill="#666666" d="M 169.5,351.5 C 169.5,348.833 169.5,346.167 169.5,343.5C 168.5,343.5 167.5,343.5 166.5,343.5C 168.148,342.073 170.148,341.24 172.5,341C 174.255,337.19 176.588,336.69 179.5,339.5C 176.777,341.398 173.943,343.065 171,344.5C 170.814,347.036 170.314,349.369 169.5,351.5 Z"/></g>
<g><path style="opacity:0.928" fill="#5e5e5e" d="M 328.5,344.5 C 329.183,342.824 330.517,342.157 332.5,342.5C 338.567,342.753 343.567,340.753 347.5,336.5C 349.96,337.16 350.626,338.494 349.5,340.5C 346.941,342.233 344.275,343.733 341.5,345C 341.493,346.583 341.826,348.249 342.5,350C 340.347,353.496 337.181,355.329 333,355.5C 328.961,352.644 327.461,348.978 328.5,344.5 Z M 330.5,345.5 C 331.222,345.918 331.722,346.584 332,347.5C 332.417,346.244 333.25,345.577 334.5,345.5C 334.238,346.978 334.571,348.311 335.5,349.5C 336.386,348.675 336.719,347.675 336.5,346.5C 337.268,347.263 337.768,348.263 338,349.5C 338.278,348.584 338.778,347.918 339.5,347.5C 338.618,351.143 336.284,352.31 332.5,351C 331.139,349.416 330.472,347.582 330.5,345.5 Z"/></g>
<g><path style="opacity:0.012" fill="#f8f8f8" d="M 435.5,341.5 C 435.938,341.435 436.272,341.601 436.5,342C 435.897,344.071 434.564,345.238 432.5,345.5C 433.512,344.128 434.512,342.795 435.5,341.5 Z"/></g>
<g><path style="opacity:0.878" fill="#5b5a5b" d="M 236.5,337.5 C 237.844,340.425 240.177,343.258 243.5,346C 252.497,349.502 258.163,346.669 260.5,337.5C 262.681,337.284 264.347,338.117 265.5,340C 263.185,341.109 261.685,342.943 261,345.5C 254.056,350.121 246.89,350.621 239.5,347C 237.586,344.383 235.586,341.883 233.5,339.5C 234.602,338.824 235.602,338.158 236.5,337.5 Z"/></g>
<g><path style="opacity:0.012" fill="#eaeaea" d="M 330.5,345.5 C 331.833,344.167 333.167,344.167 334.5,345.5C 333.25,345.577 332.417,346.244 332,347.5C 331.722,346.584 331.222,345.918 330.5,345.5 Z"/></g>
<g><path style="opacity:0.01" fill="#f5f5f5" d="M 339.5,347.5 C 338.778,347.918 338.278,348.584 338,349.5C 337.768,348.263 337.268,347.263 336.5,346.5C 336.821,344.952 337.821,344.285 339.5,344.5C 339.5,345.5 339.5,346.5 339.5,347.5 Z"/></g>
<g><path style="opacity:0.88" fill="#474646" d="M 160.5,343.5 C 162.5,343.5 164.5,343.5 166.5,343.5C 167.5,343.5 168.5,343.5 169.5,343.5C 169.5,346.167 169.5,348.833 169.5,351.5C 168.596,350.791 168.263,349.791 168.5,348.5C 168.5,348.167 168.5,347.833 168.5,347.5C 168.869,345.007 168.203,344.34 166.5,345.5C 165.15,346.483 164.15,347.816 163.5,349.5C 162.602,348.078 161.602,346.745 160.5,345.5C 160.082,344.778 159.416,344.278 158.5,344C 159.094,343.536 159.761,343.369 160.5,343.5 Z"/></g>
<g><path style="opacity:0.012" fill="#fafafa" d="M 168.5,347.5 C 167.5,347.167 166.833,346.5 166.5,345.5C 168.203,344.34 168.869,345.007 168.5,347.5 Z"/></g>
<g><path style="opacity:0.039" fill="#e0e0e0" d="M 53.5,343.5 C 54.3446,344.671 55.0113,346.005 55.5,347.5C 53.8235,346.817 53.1568,345.483 53.5,343.5 Z"/></g>
<g><path style="opacity:0.878" fill="#3a3a3a" d="M 444.5,330.5 C 445.167,330.5 445.833,330.5 446.5,330.5C 447.69,338.577 445.69,345.577 440.5,351.5C 439.5,350.833 438.5,350.167 437.5,349.5C 437.12,344.797 438.12,340.463 440.5,336.5C 441.466,338.396 441.799,340.396 441.5,342.5C 440.883,342.611 440.383,342.944 440,343.5C 439.333,345.5 439.333,347.5 440,349.5C 441.789,346.259 443.289,342.926 444.5,339.5C 444.5,336.5 444.5,333.5 444.5,330.5 Z"/></g>
<g><path style="opacity:0.013" fill="#f2f2f2" d="M 444.5,339.5 C 443.289,342.926 441.789,346.259 440,349.5C 439.333,347.5 439.333,345.5 440,343.5C 440.383,342.944 440.883,342.611 441.5,342.5C 442.1,341.1 443.1,340.1 444.5,339.5 Z"/></g>
<g><path style="opacity:0.879" fill="#6c6a6a" d="M 228.5,345.5 C 232.231,350.562 236.897,354.562 242.5,357.5C 240.901,357.232 239.568,357.566 238.5,358.5C 232.811,356.145 228.811,352.145 226.5,346.5C 227.492,346.672 228.158,346.338 228.5,345.5 Z"/></g>
<g><path style="opacity:0.956" fill="#505050" d="M 399.5,325.5 C 399.167,326.833 398.833,328.167 398.5,329.5C 397.566,330.568 397.232,331.901 397.5,333.5C 397.5,333.833 397.5,334.167 397.5,334.5C 397.479,339.938 398.979,344.938 402,349.5C 402.5,348.5 403,347.5 403.5,346.5C 401.332,343.502 400.332,340.169 400.5,336.5C 400.5,336.167 400.5,335.833 400.5,335.5C 402.256,336.552 402.923,338.219 402.5,340.5C 402.932,341.71 403.599,342.71 404.5,343.5C 404.5,343.833 404.5,344.167 404.5,344.5C 404.5,345.167 404.833,345.5 405.5,345.5C 405.5,346.167 405.5,346.833 405.5,347.5C 403.078,349.286 403.078,350.952 405.5,352.5C 406.167,352.5 406.5,352.167 406.5,351.5C 407.167,351.5 407.5,351.167 407.5,350.5C 408.77,348.452 409.103,346.452 408.5,344.5C 408.672,343.508 408.338,342.842 407.5,342.5C 407.167,341.833 406.833,341.167 406.5,340.5C 406.5,339.5 406.5,338.5 406.5,337.5C 407.391,336.89 408.391,336.557 409.5,336.5C 409.5,337.167 409.5,337.833 409.5,338.5C 408.662,338.842 408.328,339.508 408.5,340.5C 408.833,341.5 409.5,342.167 410.5,342.5C 411.767,345.272 411.767,347.939 410.5,350.5C 409.094,350.973 408.427,351.973 408.5,353.5C 414.288,358.378 420.955,359.712 428.5,357.5C 429.492,357.328 430.158,357.662 430.5,358.5C 414.608,363.776 403.108,358.442 396,342.5C 395.324,337.129 395.491,331.796 396.5,326.5C 397.391,325.89 398.391,325.557 399.5,325.5 Z M 408.5,344.5 C 409.103,346.452 408.77,348.452 407.5,350.5C 406.596,349.791 406.263,348.791 406.5,347.5C 407.167,346.5 407.833,345.5 408.5,344.5 Z"/></g>
<g><path style="opacity:0.01" fill="#f3f3f3" d="M 405.5,347.5 C 405.833,347.5 406.167,347.5 406.5,347.5C 406.263,348.791 406.596,349.791 407.5,350.5C 407.5,351.167 407.167,351.5 406.5,351.5C 405.833,351.5 405.5,351.833 405.5,352.5C 403.078,350.952 403.078,349.286 405.5,347.5 Z"/></g>
<g><path style="opacity:0.01" fill="#f8f8f8" d="M 406.5,340.5 C 406.833,341.167 407.167,341.833 407.5,342.5C 408.338,342.842 408.672,343.508 408.5,344.5C 407.833,345.5 407.167,346.5 406.5,347.5C 406.672,346.508 406.338,345.842 405.5,345.5C 404.833,345.5 404.5,345.167 404.5,344.5C 405.833,344.167 405.833,343.833 404.5,343.5C 403.599,342.71 402.932,341.71 402.5,340.5C 403.268,339.737 403.768,338.737 404,337.5C 404.377,338.942 405.21,339.942 406.5,340.5 Z"/></g>
<g><path style="opacity:0.878" fill="#696564" d="M 57.5,346.5 C 61.4398,352.45 66.7731,356.45 73.5,358.5C 72.6618,358.842 72.3284,359.508 72.5,360.5C 65.6951,358.78 60.3617,355.114 56.5,349.5C 57.404,348.791 57.7373,347.791 57.5,346.5 Z"/></g>
<g><path style="opacity:0.902" fill="#6c6b69" d="M 186.5,341.5 C 186.328,342.492 186.662,343.158 187.5,343.5C 185.193,351.807 179.86,357.14 171.5,359.5C 171.5,358.833 171.5,358.167 171.5,357.5C 175.1,355.08 178.6,352.414 182,349.5C 183.397,346.646 184.897,343.98 186.5,341.5 Z"/></g>
<g><path style="opacity:0.004" fill="#ededed" d="M 410.5,350.5 C 410.573,352.027 409.906,353.027 408.5,353.5C 408.427,351.973 409.094,350.973 410.5,350.5 Z"/></g>
<g><path style="opacity:0.916" fill="#565656" d="M 435.5,340.5 C 435.5,340.833 435.5,341.167 435.5,341.5C 434.512,342.795 433.512,344.128 432.5,345.5C 433.64,347.78 434.807,350.114 436,352.5C 437.039,351.756 437.539,350.756 437.5,349.5C 438.5,350.167 439.5,350.833 440.5,351.5C 438.225,355.307 434.892,357.641 430.5,358.5C 430.158,357.662 429.492,357.328 428.5,357.5C 430.626,356.874 432.293,355.541 433.5,353.5C 432.051,351.389 431.051,349.056 430.5,346.5C 431.203,343.66 432.203,340.993 433.5,338.5C 433.369,337.624 433.702,336.957 434.5,336.5C 435.429,337.689 435.762,339.022 435.5,340.5 Z"/></g>
<g><path style="opacity:0.89" fill="#60605f" d="M 160.5,343.5 C 159.761,343.369 159.094,343.536 158.5,344C 159.416,344.278 160.082,344.778 160.5,345.5C 158.5,350.343 160.167,352.509 165.5,352C 166.636,350.855 167.636,349.688 168.5,348.5C 168.263,349.791 168.596,350.791 169.5,351.5C 166.137,356.444 162.304,356.778 158,352.5C 157.667,350.167 157.333,347.833 157,345.5C 153.833,343.667 150.667,341.833 147.5,340C 148.685,338.647 150.019,337.48 151.5,336.5C 152.262,337.628 152.929,338.795 153.5,340C 155.925,341.213 158.259,342.379 160.5,343.5 Z"/></g>
<g><path style="opacity:0.903" fill="#717171" d="M 313.5,342.5 C 316.833,349.167 321.833,354.167 328.5,357.5C 328.5,358.167 328.5,358.833 328.5,359.5C 320.765,357.984 315.431,353.651 312.5,346.5C 313.434,345.432 313.768,344.099 313.5,342.5 Z"/></g>
<g><path style="opacity:0.859" fill="#484646" d="M 147.5,351.5 C 154.282,357.75 162.282,359.75 171.5,357.5C 171.5,358.167 171.5,358.833 171.5,359.5C 161.626,362.193 152.959,360.193 145.5,353.5C 145.5,352.167 146.167,351.5 147.5,351.5 Z"/></g>
<g><path style="opacity:0.864" fill="#525252" d="M 347.5,354.5 C 348.492,354.328 349.158,354.662 349.5,355.5C 343.113,360.17 336.113,361.503 328.5,359.5C 328.5,358.833 328.5,358.167 328.5,357.5C 335.243,358.95 341.577,357.95 347.5,354.5 Z"/></g>
<g><path style="opacity:0.879" fill="#5c5958" d="M 96.5,349.5 C 96.3284,350.492 96.6618,351.158 97.5,351.5C 94.3708,355.325 90.5375,358.325 86,360.5C 81.6513,360.321 77.1513,360.321 72.5,360.5C 72.3284,359.508 72.6618,358.842 73.5,358.5C 76.2278,358.237 79.0611,358.237 82,358.5C 82.8525,356.875 83.8525,356.542 85,357.5C 89.5202,355.812 93.3536,353.145 96.5,349.5 Z"/></g>
<g><path style="opacity:0.901" fill="#565656" d="M 272.5,329.5 C 273.167,329.5 273.833,329.5 274.5,329.5C 274.845,354.34 262.845,364.007 238.5,358.5C 239.568,357.566 240.901,357.232 242.5,357.5C 254.813,360.091 264.313,355.758 271,344.5C 272.25,339.58 272.75,334.58 272.5,329.5 Z"/></g>
<g><path style="opacity:0.85" fill="#424242" d="M 339.5,395.5 C 339.5,396.167 339.5,396.833 339.5,397.5C 336.5,397.5 333.5,397.5 330.5,397.5C 329.209,397.737 328.209,397.404 327.5,396.5C 331.298,395.517 335.298,395.183 339.5,395.5 Z"/></g>
<g><path style="opacity:0.884" fill="#4b4b4b" d="M 428.5,396.5 C 428.158,397.338 427.492,397.672 426.5,397.5C 421.341,397.182 416.341,397.848 411.5,399.5C 409.302,399.591 408.969,398.925 410.5,397.5C 416.263,395.239 422.263,394.905 428.5,396.5 Z"/></g>
<g><path style="opacity:0.906" fill="#565554" d="M 101.5,431.5 C 100.596,430.791 100.263,429.791 100.5,428.5C 102.963,415.26 98.2964,405.427 86.5,399C 67.7554,395.41 57.0887,403.076 54.5,422C 55.7311,425.423 56.7311,428.923 57.5,432.5C 57.7373,433.791 57.404,434.791 56.5,435.5C 56.5,435.167 56.5,434.833 56.5,434.5C 55.7368,432.632 54.7368,430.965 53.5,429.5C 52.2264,428.811 52.2264,427.977 53.5,427C 51.3808,426.658 51.0474,425.825 52.5,424.5C 52.5,421.5 52.5,418.5 52.5,415.5C 58.4541,398.853 70.1207,392.687 87.5,397C 102.313,404.343 106.98,415.843 101.5,431.5 Z"/></g>
<g><path style="opacity:0.907" fill="#6a6a6a" d="M 410.5,397.5 C 408.969,398.925 409.302,399.591 411.5,399.5C 410.486,400.674 409.153,401.34 407.5,401.5C 406.833,401.833 406.167,402.167 405.5,402.5C 404.5,402.5 403.5,402.5 402.5,402.5C 404.629,400.05 407.296,398.383 410.5,397.5 Z"/></g>
<g><path style="opacity:0.949" fill="#464646" d="M 174.5,398.5 C 174.672,399.492 174.338,400.158 173.5,400.5C 154.768,395.724 143.768,402.891 140.5,422C 140.484,426.123 141.484,429.957 143.5,433.5C 143.591,435.698 142.925,436.031 141.5,434.5C 136.691,423.534 137.858,413.201 145,403.5C 153.912,396.328 163.745,394.661 174.5,398.5 Z"/></g>
<g><path style="opacity:0.906" fill="#515050" d="M 271.5,406.5 C 271.5,407.833 271.5,409.167 271.5,410.5C 269.043,410.208 266.376,410.208 263.5,410.5C 261.36,408.119 261.027,405.452 262.5,402.5C 262.938,402.565 263.272,402.399 263.5,402C 262.756,400.961 261.756,400.461 260.5,400.5C 245,394.493 233.834,399.16 227,414.5C 226.501,418.152 226.335,421.818 226.5,425.5C 226.737,426.791 226.404,427.791 225.5,428.5C 221.997,405.495 231.997,394.662 255.5,396C 258.696,396.396 261.53,397.562 264,399.5C 265.261,396.18 266.928,395.846 269,398.5C 270.707,400.909 271.54,403.575 271.5,406.5 Z M 266.5,401.5 C 270.144,404.015 270.144,406.348 266.5,408.5C 263.222,406.53 263.222,404.197 266.5,401.5 Z"/></g>
<g><path style="opacity:0.876" fill="#585858" d="M 428.5,396.5 C 437.047,398.713 442.714,404.046 445.5,412.5C 444.833,412.833 444.167,413.167 443.5,413.5C 439.776,406.11 434.109,400.776 426.5,397.5C 427.492,397.672 428.158,397.338 428.5,396.5 Z"/></g>
<g><path style="opacity:0.047" fill="#d5d5d5" d="M 260.5,400.5 C 261.756,400.461 262.756,400.961 263.5,402C 263.272,402.399 262.938,402.565 262.5,402.5C 261.5,402.167 260.833,401.5 260.5,400.5 Z"/></g>
<g><path style="opacity:0.914" fill="#6a6a6a" d="M 327.5,396.5 C 328.209,397.404 329.209,397.737 330.5,397.5C 324.253,399.458 319.253,403.124 315.5,408.5C 315.737,407.209 315.404,406.209 314.5,405.5C 317.652,400.76 321.985,397.76 327.5,396.5 Z"/></g>
<g><path style="opacity:0.878" fill="#606060" d="M 174.5,398.5 C 182.089,401.756 186.755,407.422 188.5,415.5C 187.604,414.494 186.938,414.494 186.5,415.5C 183.974,408.971 179.64,403.971 173.5,400.5C 174.338,400.158 174.672,399.492 174.5,398.5 Z"/></g>
<g><path style="opacity:0.01" fill="#f8f8f8" d="M 407.5,401.5 C 406.214,404.117 404.547,406.45 402.5,408.5C 402.5,407.833 402.167,407.5 401.5,407.5C 402.833,405.833 404.167,404.167 405.5,402.5C 406.167,402.167 406.833,401.833 407.5,401.5 Z"/></g>
<g><path style="opacity:0.886" fill="#6e6e6e" d="M 339.5,395.5 C 349.441,396.868 356.108,402.534 359.5,412.5C 358.833,412.5 358.167,412.5 357.5,412.5C 353.062,405.013 347.062,400.013 339.5,397.5C 339.5,396.833 339.5,396.167 339.5,395.5 Z"/></g>
<g><path style="opacity:0.894" fill="#414141" d="M 402.5,402.5 C 403.5,402.5 404.5,402.5 405.5,402.5C 404.167,404.167 402.833,405.833 401.5,407.5C 401.5,407.833 401.5,408.167 401.5,408.5C 400.167,408.5 399.5,407.833 399.5,406.5C 400.026,404.77 401.026,403.436 402.5,402.5 Z"/></g>
<g><path style="opacity:0.912" fill="#8d8d8d" d="M 399.5,406.5 C 399.5,407.833 400.167,408.5 401.5,408.5C 401.833,408.5 402.167,408.5 402.5,408.5C 401.5,409.5 400.5,410.5 399.5,411.5C 399.44,410.957 399.107,410.624 398.5,410.5C 397.818,411.243 397.151,411.909 396.5,412.5C 396.654,410.03 397.654,408.03 399.5,406.5 Z"/></g>
<g><path style="opacity:0.864" fill="#7a7a7a" d="M 271.5,406.5 C 272.458,408.302 273.125,410.302 273.5,412.5C 272.596,413.209 272.263,414.209 272.5,415.5C 271.596,414.791 271.263,413.791 271.5,412.5C 271.5,411.833 271.5,411.167 271.5,410.5C 271.5,409.167 271.5,407.833 271.5,406.5 Z"/></g>
<g><path style="opacity:0.009" fill="#deded9" d="M 271.5,410.5 C 271.5,411.167 271.5,411.833 271.5,412.5C 269.799,412.034 268.299,412.034 267,412.5C 265.698,411.915 264.531,411.249 263.5,410.5C 266.376,410.208 269.043,410.208 271.5,410.5 Z"/></g>
<g><path style="opacity:0.862" fill="#535353" d="M 357.5,412.5 C 358.167,412.5 358.833,412.5 359.5,412.5C 361.517,420.494 360.517,428.161 356.5,435.5C 355.5,435.5 354.5,435.5 353.5,435.5C 358.085,428.76 359.085,421.594 356.5,414C 357.056,413.617 357.389,413.117 357.5,412.5 Z"/></g>
<g><path style="opacity:0.906" fill="#454545" d="M 348.5,416.5 C 347.167,416.5 345.833,416.5 344.5,416.5C 344.5,415.167 344.5,413.833 344.5,412.5C 347.796,412.45 349.129,413.783 348.5,416.5 Z"/></g>
<g><path style="opacity:0.911" fill="#494949" d="M 322.5,412.5 C 323.833,412.5 325.167,412.5 326.5,412.5C 326.5,414.167 326.5,415.833 326.5,417.5C 322.071,418.083 320.737,416.416 322.5,412.5 Z"/></g>
<g><path style="opacity:1" fill="#515151" d="M 408.5,412.5 C 412.161,412.35 413.161,413.85 411.5,417C 407.707,417.487 406.707,415.987 408.5,412.5 Z"/></g>
<g><path style="opacity:0.535" fill="#4b4b4b" d="M 430.5,412.5 C 435.429,413.346 435.595,414.679 431,416.5C 430.5,416.167 430,415.833 429.5,415.5C 430.127,414.583 430.461,413.583 430.5,412.5 Z"/></g>
<g><path style="opacity:0.01" fill="#fefffe" d="M 52.5,415.5 C 52.5,418.5 52.5,421.5 52.5,424.5C 51.4138,424.38 50.7472,423.713 50.5,422.5C 50.9289,419.971 51.5955,417.638 52.5,415.5 Z"/></g>
<g><path style="opacity:0.829" fill="#424241" d="M 63.5,413.5 C 64.7348,413.721 65.7348,414.388 66.5,415.5C 67.891,414.355 69.2243,414.355 70.5,415.5C 67.6987,418.279 65.032,418.113 62.5,415C 63.056,414.617 63.3893,414.117 63.5,413.5 Z"/></g>
<g><path style="opacity:0.81" fill="#3a3839" d="M 85.5,414.5 C 87.3117,414.771 88.9783,415.438 90.5,416.5C 87.8301,418.09 86.1634,417.423 85.5,414.5 Z"/></g>
<g><path style="opacity:0.808" fill="#484748" d="M 236.5,413.5 C 240.138,412.737 241.638,414.07 241,417.5C 238.828,417.067 236.661,416.734 234.5,416.5C 235.193,415.482 235.859,414.482 236.5,413.5 Z"/></g>
<g><path style="opacity:0.894" fill="#4f4f4f" d="M 263.5,417.5 C 262.609,416.89 261.609,416.557 260.5,416.5C 256.818,417.662 256.152,416.829 258.5,414C 260.167,413.333 261.833,413.333 263.5,414C 264.791,415.292 264.791,416.458 263.5,417.5 Z"/></g>
<g><path style="opacity:0.844" fill="#484a49" d="M 171.5,415.5 C 173.871,416.342 176.204,416.676 178.5,416.5C 176.956,418.446 174.956,418.946 172.5,418C 171.748,417.329 171.414,416.496 171.5,415.5 Z"/></g>
<g><path style="opacity:0.008" fill="#fefffe" d="M 260.5,416.5 C 261.609,416.557 262.609,416.89 263.5,417.5C 262.221,418.715 261.221,418.382 260.5,416.5 Z"/></g>
<g><path style="opacity:0.012" fill="#fcfcfc" d="M 398.5,415.5 C 398.938,415.435 399.272,415.601 399.5,416C 398.934,416.995 398.267,417.828 397.5,418.5C 397.263,417.209 397.596,416.209 398.5,415.5 Z"/></g>
<g><path style="opacity:0.863" fill="#484647" d="M 149.5,414.5 C 151.656,416.431 153.989,417.097 156.5,416.5C 154.821,417.782 152.987,418.782 151,419.5C 148.676,418.225 148.176,416.558 149.5,414.5 Z"/></g>
<g><path style="opacity:0.005" fill="#dedede" d="M 344.5,416.5 C 345.833,416.5 347.167,416.5 348.5,416.5C 348.311,420.522 346.977,420.522 344.5,416.5 Z"/></g>
<g><path style="opacity:0.898" fill="#474747" d="M 399.5,411.5 C 399.167,412.833 398.833,414.167 398.5,415.5C 397.596,416.209 397.263,417.209 397.5,418.5C 398.051,421.807 398.384,425.14 398.5,428.5C 397.833,428.5 397.167,428.5 396.5,428.5C 395.167,423.167 395.167,417.833 396.5,412.5C 397.151,411.909 397.818,411.243 398.5,410.5C 399.107,410.624 399.44,410.957 399.5,411.5 Z"/></g>
<g><path style="opacity:0.873" fill="#3c3c3c" d="M 445.5,412.5 C 446.702,417.977 446.702,423.311 445.5,428.5C 444.833,428.5 444.167,428.5 443.5,428.5C 444.833,423.5 444.833,418.5 443.5,413.5C 444.167,413.167 444.833,412.833 445.5,412.5 Z"/></g>
<g><path style="opacity:0.879" fill="#5f5f5f" d="M 327.5,427.5 C 326.662,427.842 326.328,428.508 326.5,429.5C 324.195,428.213 321.862,426.88 319.5,425.5C 320,424.119 321,423.453 322.5,423.5C 324.186,424.857 325.852,426.19 327.5,427.5 Z"/></g>
<g><path style="opacity:0.835" fill="#999999" d="M 348.5,423.5 C 347.833,423.833 347.167,424.167 346.5,424.5C 345.262,424.19 345.262,423.69 346.5,423C 347.437,422.308 348.103,422.475 348.5,423.5 Z"/></g>
<g><path style="opacity:0.981" fill="#565556" d="M 259.5,431.5 C 258.5,431.833 257.833,432.5 257.5,433.5C 256.152,434.186 254.985,435.186 254,436.5C 252.644,435.62 251.144,435.286 249.5,435.5C 248.167,435.5 246.833,435.5 245.5,435.5C 243.847,435.34 242.514,434.674 241.5,433.5C 241.027,432.094 240.027,431.427 238.5,431.5C 236.394,429.281 235.394,426.615 235.5,423.5C 244.833,423.5 254.167,423.5 263.5,423.5C 263.708,427.085 262.375,429.751 259.5,431.5 Z M 260.5,426.5 C 254.134,434.515 247.134,435.181 239.5,428.5C 239.369,427.761 239.536,427.094 240,426.5C 246.623,426.575 253.456,426.575 260.5,426.5 Z"/></g>
<g><path style="opacity:0.886" fill="#5f5e5e" d="M 149.5,424.5 C 150.5,424.5 151.5,424.5 152.5,424.5C 153.527,430.52 157.194,433.853 163.5,434.5C 169.565,434.113 173.232,430.78 174.5,424.5C 176.681,424.284 178.347,425.117 179.5,427C 173.533,436.374 165.533,439.041 155.5,435C 152.894,433.062 151.061,430.562 150,427.5C 149.667,427.833 149.333,428.167 149,428.5C 148.421,427.072 148.588,425.738 149.5,424.5 Z"/></g>
<g><path style="opacity:0.319" fill="#aeadae" d="M 260.5,426.5 C 253.456,426.575 246.623,426.575 240,426.5C 239.536,427.094 239.369,427.761 239.5,428.5C 238.733,427.828 238.066,426.995 237.5,426C 245.916,425.182 253.583,425.349 260.5,426.5 Z"/></g>
<g><path style="opacity:0.678" fill="#aeaeae" d="M 346.5,425.5 C 345.486,426.674 344.153,427.34 342.5,427.5C 343.287,425.896 344.62,425.229 346.5,425.5 Z"/></g>
<g><path style="opacity:0.89" fill="#4f4f4f" d="M 410.5,425.5 C 418.616,425.061 426.616,425.728 434.5,427.5C 425.5,428.833 416.5,428.833 407.5,427.5C 408.602,426.824 409.602,426.158 410.5,425.5 Z"/></g>
<g><path style="opacity:0.882" fill="#9b9b9b" d="M 226.5,425.5 C 227.537,426.93 228.204,428.597 228.5,430.5C 226.797,429.34 226.131,430.007 226.5,432.5C 225.566,431.432 225.232,430.099 225.5,428.5C 226.404,427.791 226.737,426.791 226.5,425.5 Z"/></g>
<g><path style="opacity:0.895" fill="#6c6b6b" d="M 314.5,405.5 C 315.404,406.209 315.737,407.209 315.5,408.5C 312.392,415.23 311.725,422.23 313.5,429.5C 313.158,430.338 312.492,430.672 311.5,430.5C 308.498,421.532 309.498,413.199 314.5,405.5 Z"/></g>
<g><path style="opacity:0.859" fill="#5a5959" d="M 87.5,428.5 C 87.0269,427.094 86.0269,426.427 84.5,426.5C 77.092,422.861 71.092,424.527 66.5,431.5C 65.3554,430.224 65.3554,428.891 66.5,427.5C 73.6926,420.045 81.1926,419.712 89,426.5C 90.4014,428.146 90.568,429.813 89.5,431.5C 88.0815,430.995 87.4148,429.995 87.5,428.5 Z"/></g>
<g><path style="opacity:0.306" fill="#cfcfcf" d="M 84.5,426.5 C 86.0269,426.427 87.0269,427.094 87.5,428.5C 85.9731,428.573 84.9731,427.906 84.5,426.5 Z"/></g>
<g><path style="opacity:0.91" fill="#515151" d="M 348.5,423.5 C 350.225,423.843 350.725,424.843 350,426.5C 347.457,428.105 344.791,429.438 342,430.5C 341.506,432.134 341.34,433.801 341.5,435.5C 340.549,434.081 340.216,432.415 340.5,430.5C 338.901,430.232 337.568,430.566 336.5,431.5C 335.833,436.833 335.167,436.833 334.5,431.5C 333.167,431.5 331.833,431.5 330.5,431.5C 330.5,432.5 330.5,433.5 330.5,434.5C 330.737,435.791 330.404,436.791 329.5,437.5C 329.075,434.553 328.075,431.886 326.5,429.5C 326.328,428.508 326.662,427.842 327.5,427.5C 330.118,427.779 332.618,428.446 335,429.5C 337.436,428.645 339.936,427.979 342.5,427.5C 344.153,427.34 345.486,426.674 346.5,425.5C 346.5,425.167 346.5,424.833 346.5,424.5C 347.167,424.167 347.833,423.833 348.5,423.5 Z"/></g>
<g><path style="opacity:0.004" fill="#f4f4f4" d="M 53.5,429.5 C 54.7368,430.965 55.7368,432.632 56.5,434.5C 54.2591,433.7 53.2591,432.034 53.5,429.5 Z"/></g>
<g><path style="opacity:0.909" fill="#6a6a6a" d="M 313.5,429.5 C 317.824,437.17 324.158,442.17 332.5,444.5C 331.209,444.263 330.209,444.596 329.5,445.5C 320.457,444.122 314.457,439.122 311.5,430.5C 312.492,430.672 313.158,430.338 313.5,429.5 Z"/></g>
<g><path style="opacity:0.86" fill="#585858" d="M 443.5,428.5 C 444.167,428.5 444.833,428.5 445.5,428.5C 439.724,443.058 429.057,448.725 413.5,445.5C 413.328,444.508 413.662,443.842 414.5,443.5C 427.621,445.77 437.288,440.77 443.5,428.5 Z"/></g>
<g><path style="opacity:0.075" fill="#ebebeb" d="M 238.5,431.5 C 240.027,431.427 241.027,432.094 241.5,433.5C 239.973,433.573 238.973,432.906 238.5,431.5 Z"/></g>
<g><path style="opacity:0.004" fill="#e9e9e9" d="M 259.5,431.5 C 259.5,432.833 258.833,433.5 257.5,433.5C 257.833,432.5 258.5,431.833 259.5,431.5 Z"/></g>
<g><path style="opacity:0.914" fill="#5d5b5b" d="M 100.5,428.5 C 100.263,429.791 100.596,430.791 101.5,431.5C 93.568,445.541 81.9014,449.708 66.5,444C 62.3875,442.052 59.0541,439.219 56.5,435.5C 57.404,434.791 57.7373,433.791 57.5,432.5C 70.0858,447.437 83.2525,448.104 97,434.5C 97.5995,432.09 98.7662,430.09 100.5,428.5 Z"/></g>
<g><path style="opacity:0.006" fill="#fefffe" d="M 245.5,435.5 C 246.833,435.5 248.167,435.5 249.5,435.5C 249.918,436.222 250.584,436.722 251.5,437C 249.119,437.738 247.119,437.238 245.5,435.5 Z"/></g>
<g><path style="opacity:0.894" fill="#6d6d6d" d="M 396.5,428.5 C 397.167,428.5 397.833,428.5 398.5,428.5C 402.137,435.317 407.47,440.317 414.5,443.5C 413.662,443.842 413.328,444.508 413.5,445.5C 404.837,442.837 399.171,437.171 396.5,428.5 Z"/></g>
<g><path style="opacity:0.953" fill="#5c5c5c" d="M 188.5,415.5 C 190.853,433.467 183.187,444.134 165.5,447.5C 165.5,446.833 165.5,446.167 165.5,445.5C 181.081,441.575 188.081,431.575 186.5,415.5C 186.938,414.494 187.604,414.494 188.5,415.5 Z"/></g>
<g><path style="opacity:0.898" fill="#565656" d="M 273.5,412.5 C 277.803,432.233 269.803,443.566 249.5,446.5C 246.803,446.297 244.136,445.964 241.5,445.5C 241.833,444.833 242.167,444.167 242.5,443.5C 254.927,445.633 264.427,441.3 271,430.5C 272.25,425.58 272.75,420.58 272.5,415.5C 272.263,414.209 272.596,413.209 273.5,412.5 Z"/></g>
<g><path style="opacity:0.925" fill="#696969" d="M 228.5,430.5 C 231.861,436.193 236.527,440.526 242.5,443.5C 242.167,444.167 241.833,444.833 241.5,445.5C 238.527,444.013 235.527,442.513 232.5,441C 230.28,438.287 228.28,435.454 226.5,432.5C 226.131,430.007 226.797,429.34 228.5,430.5 Z"/></g>
<g><path style="opacity:0.887" fill="#606060" d="M 336.5,431.5 C 337.568,430.566 338.901,430.232 340.5,430.5C 340.216,432.415 340.549,434.081 341.5,435.5C 341.5,436.167 341.5,436.833 341.5,437.5C 340.128,438.512 338.795,439.512 337.5,440.5C 336.167,440.5 334.833,440.5 333.5,440.5C 333.167,440.5 332.833,440.5 332.5,440.5C 331.167,439.833 330.167,438.833 329.5,437.5C 330.404,436.791 330.737,435.791 330.5,434.5C 332.617,439.31 335.45,439.643 339,435.5C 339.49,434.207 339.657,432.873 339.5,431.5C 338.5,431.5 337.5,431.5 336.5,431.5 Z"/></g>
<g><path style="opacity:0.008" fill="#f7f7f7" d="M 341.5,437.5 C 340.38,441.561 337.713,443.395 333.5,443C 332.748,442.329 332.414,441.496 332.5,440.5C 332.833,440.5 333.167,440.5 333.5,440.5C 334.833,441.833 336.167,441.833 337.5,440.5C 338.795,439.512 340.128,438.512 341.5,437.5 Z"/></g>
<g><path style="opacity:0.922" fill="#6a6a6a" d="M 353.5,435.5 C 354.5,435.5 355.5,435.5 356.5,435.5C 351.853,441.993 345.52,445.659 337.5,446.5C 337.5,445.833 337.5,445.167 337.5,444.5C 343.624,443.005 348.958,440.005 353.5,435.5 Z"/></g>
<g><path style="opacity:0.929" fill="#646261" d="M 143.5,433.5 C 148.993,441.241 156.326,445.241 165.5,445.5C 165.5,446.167 165.5,446.833 165.5,447.5C 154.728,448.445 146.728,444.112 141.5,434.5C 142.925,436.031 143.591,435.698 143.5,433.5 Z"/></g>
<g><path style="opacity:0.903" fill="#303030" d="M 329.5,445.5 C 330.209,444.596 331.209,444.263 332.5,444.5C 334.167,444.5 335.833,444.5 337.5,444.5C 337.5,445.167 337.5,445.833 337.5,446.5C 334.721,446.721 332.054,446.388 329.5,445.5 Z"/></g>
</svg>
