<?xml version="1.0" encoding="utf-8"?>
<!-- Generator: Adobe Illustrator 26.3.1, SVG Export Plug-In . SVG Version: 6.00 Build 0)  -->
<svg version="1.1" id="Layer_1" xmlns="http://www.w3.org/2000/svg" xmlns:xlink="http://www.w3.org/1999/xlink" x="0px" y="0px"
	 viewBox="0 0 512 512" style="enable-background:new 0 0 512 512;" xml:space="preserve">
<style type="text/css">
	.st0{fill:gray;fill-rule:evenodd;clip-rule:evenodd;}
</style>
<g>
	<path class="st0" d="M409.6,241.02c0,14.12-11.47,25.6-25.6,25.6h-51.2c-14.13,0-25.6-11.48-25.6-25.6v-51.2
		c0-14.14,11.47-25.6,25.6-25.6H384c14.13,0,25.6,11.46,25.6,25.6V241.02z M409.6,343.42c0,14.12-11.47,25.6-25.6,25.6H128
		c-14.13,0-25.6-11.48-25.6-25.6c0-14.14,11.47-25.6,25.6-25.6h256C398.13,317.83,409.6,329.29,409.6,343.42z M204.8,241.02
		c0,14.12-11.47,25.6-25.6,25.6H128c-14.13,0-25.6-11.48-25.6-25.6v-51.2c0-14.14,11.47-25.6,25.6-25.6h51.2
		c14.13,0,25.6,11.46,25.6,25.6V241.02z M256,460.8c-112.92,0-204.8-91.88-204.8-204.8S143.08,51.2,256,51.2S460.8,143.07,460.8,256
		S368.92,460.8,256,460.8z M256,0C114.61,0,0,114.61,0,256s114.61,256,256,256s256-114.61,256-256S397.39,0,256,0z"/>
</g>
</svg>
