<?xml version="1.0" encoding="utf-8"?>
<!-- Generator: Adobe Illustrator 26.3.1, SVG Export Plug-In . SVG Version: 6.00 Build 0)  -->
<svg version="1.1" id="Layer_1" xmlns="http://www.w3.org/2000/svg" xmlns:xlink="http://www.w3.org/1999/xlink" x="0px" y="0px"
	 viewBox="0 0 512 512" style="enable-background:new 0 0 512 512;" xml:space="preserve">
<style type="text/css">
	.st0{fill:green;fill-rule:evenodd;clip-rule:evenodd;}
</style>
<g>
	<path class="st0" d="M409.6,204.8c0,28.29-22.91,51.2-51.2,51.2c-28.29,0-51.2-22.91-51.2-51.2s22.91-51.2,51.2-51.2
		C386.69,153.6,409.6,176.51,409.6,204.8 M381.21,311.19c-25.96,131.2-224.46,131.2-250.42,0c-3.05-15.46,9.8-29.59,25.57-29.59
		c12.29,0,22.32,8.89,25.19,20.84c17.79,74.62,131.1,74.62,148.89,0c2.87-11.95,12.9-20.84,25.19-20.84
		C371.4,281.6,384.26,295.73,381.21,311.19 M153.6,256c-28.29,0-51.2-22.91-51.2-51.2s22.91-51.2,51.2-51.2s51.2,22.91,51.2,51.2
		S181.89,256,153.6,256 M256,460.8c-112.92,0-204.8-91.88-204.8-204.8S143.08,51.2,256,51.2S460.8,143.07,460.8,256
		S368.92,460.8,256,460.8 M256,0C114.61,0,0,114.61,0,256s114.61,256,256,256s256-114.61,256-256S397.39,0,256,0"/>
</g>
</svg>
