<?xml version="1.0" encoding="utf-8"?>
<!-- Generator: Adobe Illustrator 26.3.1, SVG Export Plug-In . SVG Version: 6.00 Build 0)  -->
<svg version="1.1" id="Layer_1" xmlns="http://www.w3.org/2000/svg" xmlns:xlink="http://www.w3.org/1999/xlink" x="0px" y="0px"
	 viewBox="0 0 512 512" style="enable-background:new 0 0 512 512;" xml:space="preserve">
<style type="text/css">
	.st0{fill:red;fill-rule:evenodd;clip-rule:evenodd;}
</style>
<g>
	<path class="st0" d="M358.4,153.6c-28.29,0-51.2,22.91-51.2,51.2s22.91,51.2,51.2,51.2c28.29,0,51.2-22.91,51.2-51.2
		S386.69,153.6,358.4,153.6 M153.6,153.6c-28.29,0-51.2,22.91-51.2,51.2s22.91,51.2,51.2,51.2s51.2-22.91,51.2-51.2
		S181.89,153.6,153.6,153.6 M460.8,256c0-112.93-91.88-204.8-204.8-204.8S51.2,143.07,51.2,256S143.08,460.8,256,460.8
		S460.8,368.92,460.8,256 M512,256c0,141.39-114.61,256-256,256S0,397.39,0,256S114.61,0,256,0S512,114.61,512,256 M130.79,380.01
		c25.96-131.2,224.46-131.2,250.42,0c3.05,15.46-9.8,29.59-25.57,29.59c-12.29,0-22.32-8.89-25.19-20.84
		c-17.79-74.62-131.1-74.62-148.89,0c-2.87,11.95-12.9,20.84-25.19,20.84C140.6,409.6,127.74,395.48,130.79,380.01"/>
</g>
</svg>
